<svg width="182" height="50" viewBox="0 0 182 50" fill="none" xmlns="http://www.w3.org/2000/svg">
<path d="M20.4331 30.0021C21.6238 31.079 23.2012 31.7347 24.9313 31.7347C28.6397 31.7347 31.6462 28.7199 31.6462 25.0013C31.6462 21.2831 28.6397 18.2656 24.9313 18.2656C23.1941 18.2656 21.6073 18.9284 20.4143 20.0171C20.3879 20.0388 20.364 20.0625 20.338 20.0889C19.145 21.1752 17.5602 21.838 15.8233 21.838C14.086 21.838 12.4992 21.1752 11.3086 20.0889C11.2822 20.0625 11.2586 20.0388 11.232 20.0171C10.0389 18.9284 8.45215 18.2656 6.71489 18.2656C3.00655 18.2656 0 21.2831 0 25.0013C0 28.7199 3.00655 31.7347 6.71489 31.7347C8.44506 31.7347 10.0221 31.079 11.2127 30.0021C11.2509 29.9686 11.2893 29.9328 11.3275 29.8945C12.5158 28.8176 14.0931 28.1623 15.8233 28.1623C17.5535 28.1623 19.1281 28.818 20.3188 29.8945C20.3569 29.9328 20.395 29.9686 20.4331 30.0021Z" fill="#FED91F"/>
<path d="M24.9307 0C21.2217 0 18.2148 3.01515 18.2148 6.73469C18.2148 10.4542 21.2217 13.4694 24.9307 13.4694C31.2711 13.4694 36.4299 18.6427 36.4299 25.0002C36.4299 31.358 31.2708 36.531 24.9307 36.531C21.2217 36.531 18.2148 39.5461 18.2148 43.2656C18.2148 46.9849 21.2217 50 24.9307 50C38.6996 50 49.8624 38.8065 49.8624 24.9998C49.8624 11.1931 38.6996 0 24.9307 0Z" fill="#FED91F"/>
<path d="M6.71624 13.4694C10.4255 13.4694 13.4325 10.4542 13.4325 6.73469C13.4325 3.01522 10.4255 0 6.71624 0C3.00696 0 0 3.01522 0 6.73469C0 10.4542 3.00696 13.4694 6.71624 13.4694Z" fill="#FED91F"/>
<path d="M156.629 41.1465V8.85352H168.885C171.093 8.85352 173.042 9.24363 174.734 10.0239C176.454 10.8041 177.801 11.96 178.776 13.4916C179.751 15.0231 180.238 16.9159 180.238 19.1699C180.238 21.3662 179.736 23.2445 178.733 24.805C177.73 26.3365 176.382 27.4924 174.691 28.2727L182.001 41.1465H174.519L166.606 26.8856L170.906 29.443H163.295V41.1465H156.629ZM163.295 23.5913H168.928C169.874 23.5913 170.691 23.4034 171.379 23.0278C172.067 22.6521 172.598 22.1319 172.97 21.4673C173.372 20.8027 173.572 20.0369 173.572 19.1699C173.572 18.2741 173.372 17.4939 172.97 16.8292C172.598 16.1646 172.067 15.6444 171.379 15.2688C170.691 14.8931 169.874 14.7053 168.928 14.7053H163.295V23.5913Z" fill="white"/>
<path d="M134.916 41.6663C132.508 41.6663 130.272 41.2473 128.208 40.4093C126.143 39.5713 124.337 38.4009 122.789 36.8982C121.27 35.3667 120.08 33.5895 119.22 31.5666C118.36 29.5438 117.93 27.3476 117.93 24.978C117.93 22.6084 118.345 20.4122 119.177 18.3894C120.037 16.3665 121.227 14.6038 122.746 13.1011C124.294 11.5984 126.1 10.4281 128.165 9.59005C130.229 8.75202 132.479 8.33301 134.916 8.33301C137.353 8.33301 139.604 8.75202 141.668 9.59005C143.732 10.4281 145.524 11.5984 147.043 13.1011C148.591 14.6038 149.781 16.3665 150.613 18.3894C151.473 20.4122 151.903 22.6084 151.903 24.978C151.903 27.3476 151.473 29.5438 150.613 31.5666C149.753 33.5895 148.548 35.3667 147 36.8982C145.481 38.4009 143.689 39.5713 141.625 40.4093C139.561 41.2473 137.324 41.6663 134.916 41.6663ZM134.916 35.5979C136.378 35.5979 137.726 35.3378 138.959 34.8176C140.22 34.2975 141.324 33.575 142.27 32.6503C143.216 31.6967 143.947 30.5697 144.463 29.2693C144.979 27.9689 145.237 26.5385 145.237 24.978C145.237 23.4175 144.979 22.0016 144.463 20.7301C143.947 19.4297 143.216 18.3027 142.27 17.349C141.324 16.3954 140.22 15.673 138.959 15.1817C137.726 14.6616 136.378 14.4015 134.916 14.4015C133.454 14.4015 132.092 14.6616 130.831 15.1817C129.598 15.673 128.509 16.3954 127.563 17.349C126.616 18.3027 125.885 19.4297 125.369 20.7301C124.853 22.0016 124.595 23.4175 124.595 24.978C124.595 26.5385 124.853 27.9689 125.369 29.2693C125.885 30.5697 126.616 31.6967 127.563 32.6503C128.509 33.575 129.598 34.2975 130.831 34.8176C132.092 35.3378 133.454 35.5979 134.916 35.5979Z" fill="white"/>
<path d="M86.3125 41.1465L97.1495 8.85352H106.008L116.845 41.1465H109.578L107.427 34.5579H95.6874L93.5372 41.1465H86.3125ZM97.5365 28.7061H105.578L100.676 13.4482H102.482L97.5365 28.7061Z" fill="white"/>
<path d="M72.9091 41.6663C70.9023 41.6663 69.0101 41.3051 67.2326 40.5827C65.4838 39.8313 63.9643 38.7766 62.6742 37.4184C61.4127 36.0602 60.4667 34.4564 59.8359 32.607L65.2974 30.1362C66.1002 31.899 67.2039 33.286 68.6087 34.2975C70.0422 35.3089 71.619 35.8146 73.3392 35.8146C74.2566 35.8146 75.045 35.6701 75.7044 35.3811C76.3638 35.0921 76.8798 34.702 77.2525 34.2108C77.6252 33.6906 77.8116 33.0838 77.8116 32.3902C77.8116 31.6389 77.5822 31.0031 77.1235 30.483C76.6648 29.9339 75.9481 29.5005 74.9733 29.1826L68.6947 27.102C66.1432 26.2639 64.2223 25.0791 62.9322 23.5476C61.6421 21.9871 60.997 20.1232 60.997 17.9559C60.997 16.0487 61.4558 14.3726 62.3732 12.9277C63.3193 11.4828 64.6237 10.3558 66.2865 9.54671C67.978 8.73757 69.9132 8.33301 72.0921 8.33301C74.0129 8.33301 75.7904 8.66533 77.4245 9.32997C79.0587 9.99462 80.4635 10.9338 81.6389 12.1475C82.843 13.3612 83.7461 14.8205 84.3482 16.5255L78.9297 18.9962C78.3276 17.4935 77.4245 16.3232 76.2204 15.4852C75.0163 14.6182 73.6402 14.1848 72.0921 14.1848C71.2033 14.1848 70.4149 14.3292 69.7268 14.6182C69.0388 14.9072 68.5084 15.3262 68.1357 15.8753C67.763 16.3954 67.5766 17.0023 67.5766 17.6958C67.5766 18.4472 67.8203 19.1118 68.3077 19.6897C68.7951 20.2388 69.5262 20.6723 70.5009 20.9901L76.6505 22.9841C79.2307 23.8221 81.1516 24.9925 82.413 26.4951C83.7031 27.9978 84.3482 29.8328 84.3482 32.0001C84.3482 33.8784 83.8608 35.5545 82.886 37.0283C81.9113 38.4732 80.5638 39.6146 78.8437 40.4526C77.1522 41.2618 75.174 41.6663 72.9091 41.6663Z" fill="white"/>
</svg>
