<svg width="1019" height="404" viewBox="0 0 1019 404" fill="none" xmlns="http://www.w3.org/2000/svg">
<path d="M512.99 373.255C601.128 373.255 672.577 301.805 672.577 213.668C672.577 125.53 601.128 54.0801 512.99 54.0801C424.852 54.0801 353.402 125.53 353.402 213.668C353.402 301.805 424.852 373.255 512.99 373.255Z" fill="#121212"/>
<path d="M189.027 323.976H16.3046L0 254.175L184.951 34.0664H284.815V250.098H330.161V323.975H284.815V393.268H189.028V323.976H189.027ZM189.027 250.607V148.197L103.939 250.607H189.027Z" fill="#121212"/>
<path d="M877.853 323.976H705.129L688.824 254.175L873.776 34.0664H973.64V250.098H1018.99V323.975H973.64V393.268H877.853V323.976ZM877.853 250.607V148.197L792.765 250.607H877.853Z" fill="#121212"/>
<path d="M563.688 139.772L522.356 139.81L461.102 139.89L383.883 385.185H522.356H642.153L563.688 139.772Z" fill="url(#paint0_linear_898_408)"/>
<path d="M513.014 193.815C557.962 193.815 594.399 157.378 594.399 112.43C594.399 67.4824 557.962 31.0449 513.014 31.0449C468.066 31.0449 431.629 67.4824 431.629 112.43C431.629 157.378 468.066 193.815 513.014 193.815Z" fill="#FED91F"/>
<path d="M594.237 112.43C594.237 112.43 567.182 129.109 512.396 129.109C457.61 129.109 431.25 112.43 431.25 112.43C431.25 112.43 337.176 139.523 337.176 158.269C337.176 177.014 442.668 193.815 512.396 193.815C582.124 193.815 687.964 177.014 687.964 158.269C687.964 139.523 594.237 112.43 594.237 112.43Z" fill="#FED91F"/>
<path d="M427.438 113.461C427.438 113.461 436.677 162.012 496.106 162.012C555.535 162.012 596.688 116.402 596.688 116.402C596.688 116.402 570.926 124.442 512.398 124.442C453.87 124.442 427.438 113.461 427.438 113.461Z" fill="#6D2CF8"/>
<path d="M510.074 31.6501V8.31445" stroke="#6D2CF8" stroke-width="3" stroke-miterlimit="10"/>
<path d="M510.528 17.2427C515.289 17.2427 519.149 13.3828 519.149 8.62135C519.149 3.85991 515.289 0 510.528 0C505.766 0 501.906 3.85991 501.906 8.62135C501.906 13.3828 505.766 17.2427 510.528 17.2427Z" fill="#FAB32F"/>
<path d="M513.019 404C584.338 404 642.154 395.504 642.154 385.024C642.154 374.544 584.338 366.049 513.019 366.049C441.699 366.049 383.883 374.544 383.883 385.024C383.883 395.504 441.699 404 513.019 404Z" fill="url(#paint1_linear_898_408)"/>
<path d="M566.775 284.524L516.186 322.534C514.737 323.622 512.68 323.331 511.591 321.882L468.729 264.833C467.64 263.384 467.932 261.327 469.381 260.238L510.957 229L531.854 232.582L567.428 279.929C568.516 281.377 568.225 283.435 566.775 284.524Z" fill="#6D2CF8"/>
<path d="M510.957 229L531.854 232.582L522.774 240.033C521.584 241.01 519.821 240.797 518.897 239.566L510.957 229Z" fill="#4E09DF"/>
<path d="M499.527 275.401C501.848 275.401 503.73 273.519 503.73 271.198C503.73 268.877 501.848 266.995 499.527 266.995C497.206 266.995 495.324 268.877 495.324 271.198C495.324 273.519 497.206 275.401 499.527 275.401Z" fill="#BFCBEB"/>
<path d="M522.421 258.199C524.743 258.199 526.624 256.317 526.624 253.996C526.624 251.675 524.743 249.793 522.421 249.793C520.1 249.793 518.219 251.675 518.219 253.996C518.219 256.317 520.1 258.199 522.421 258.199Z" fill="#BFCBEB"/>
<path d="M527.61 284.965C529.698 283.396 528.654 278.481 525.277 273.987C521.9 269.493 517.47 267.122 515.382 268.691C513.294 270.259 514.339 275.174 517.715 279.668C521.092 284.162 525.522 286.534 527.61 284.965Z" fill="#121212"/>
<path d="M606.506 252.85L587.225 254.965C586.26 255.071 585.788 253.817 586.593 253.273C590.17 250.855 595.31 246.115 598.902 237.441C602.564 228.595 601.814 223.341 601.361 221.582C601.256 221.175 601.454 220.75 601.823 220.549L619.319 211.019C619.886 210.71 620.592 211.055 620.688 211.695C621.144 214.77 621.799 223.009 617.977 232.945C613.909 243.524 608.361 250.937 607.139 252.502C606.982 252.7 606.757 252.822 606.506 252.85Z" fill="#BE9FFF"/>
<path d="M388.762 324.615C386.508 330.213 379.871 350.581 396.291 363.65C397.196 364.371 398.436 364.528 399.489 364.048L423.961 352.916C425.758 352.098 426.322 349.831 425.127 348.259C421.255 343.173 414.51 332.301 417.244 321.108C417.794 318.86 415.815 316.816 413.564 317.355L390.889 322.79C389.924 323.022 389.132 323.695 388.762 324.615Z" fill="#BE9FFF"/>
<path d="M436.441 174.76C448.295 174.76 457.905 165.15 457.905 153.296C457.905 141.442 448.295 131.832 436.441 131.832C424.586 131.832 414.977 141.442 414.977 153.296C414.977 165.15 424.586 174.76 436.441 174.76Z" fill="#121212"/>
<path d="M589.593 174.76C601.447 174.76 611.057 165.15 611.057 153.296C611.057 141.442 601.447 131.832 589.593 131.832C577.739 131.832 568.129 141.442 568.129 153.296C568.129 165.15 577.739 174.76 589.593 174.76Z" fill="#121212"/>
<path d="M589.596 169.78C598.7 169.78 606.079 162.4 606.079 153.297C606.079 144.193 598.7 136.813 589.596 136.813C580.493 136.813 573.113 144.193 573.113 153.297C573.113 162.4 580.493 169.78 589.596 169.78Z" fill="#BFCBEB"/>
<path d="M512.855 183.476C524.709 183.476 534.319 173.866 534.319 162.012C534.319 150.158 524.709 140.548 512.855 140.548C501 140.548 491.391 150.158 491.391 162.012C491.391 173.866 501 183.476 512.855 183.476Z" fill="#121212"/>
<path d="M513.574 337.346V356.014" stroke="#6D2CF8" stroke-width="3" stroke-miterlimit="10" stroke-linecap="round" stroke-linejoin="round"/>
<path d="M531.074 330.346V340.847" stroke="#6D2CF8" stroke-width="3" stroke-miterlimit="10" stroke-linecap="round" stroke-linejoin="round"/>
<path d="M531.074 351.348V356.015" stroke="#6D2CF8" stroke-width="3" stroke-miterlimit="10" stroke-linecap="round" stroke-linejoin="round"/>
<path d="M496.07 329.179V339.68" stroke="#6D2CF8" stroke-width="3" stroke-miterlimit="10" stroke-linecap="round" stroke-linejoin="round"/>
<path d="M496.07 346.681V352.515" stroke="#6D2CF8" stroke-width="3" stroke-miterlimit="10" stroke-linecap="round" stroke-linejoin="round"/>
<path d="M546.961 77.5369C553.944 77.5369 559.605 71.8758 559.605 64.8925C559.605 57.9091 553.944 52.248 546.961 52.248C539.978 52.248 534.316 57.9091 534.316 64.8925C534.316 71.8758 539.978 77.5369 546.961 77.5369Z" fill="#D9E0F3"/>
<path d="M571.464 95.6092C574.896 95.6092 577.679 92.827 577.679 89.3949C577.679 85.9629 574.896 83.1807 571.464 83.1807C568.032 83.1807 565.25 85.9629 565.25 89.3949C565.25 92.827 568.032 95.6092 571.464 95.6092Z" fill="#D9E0F3"/>
<path d="M510.074 90.7344C498.446 90.7344 494.176 96.6628 494.176 108.521C494.176 120.379 505.816 128.706 510.074 128.706C514.333 128.706 525.973 120.378 525.973 108.521C525.973 96.6639 521.702 90.7344 510.074 90.7344Z" fill="#94A8D9"/>
<path d="M512.983 112.239C512.983 112.239 512.778 107.383 515.925 105.194C519.071 103.005 523.722 104.578 523.722 104.578C523.722 104.578 523.839 110.734 520.363 112.207C515.929 114.085 512.983 112.239 512.983 112.239Z" fill="#BFCBEB"/>
<path d="M507.345 112.239C507.345 112.239 507.55 107.383 504.404 105.194C501.257 103.005 496.606 104.578 496.606 104.578C496.606 104.578 496.489 110.734 499.965 112.207C504.398 114.085 507.345 112.239 507.345 112.239Z" fill="#BFCBEB"/>
<path d="M512.397 133.776C456.896 133.776 429.878 117.084 428.755 116.374C426.576 114.995 425.928 112.113 427.306 109.934C428.684 107.756 431.567 107.107 433.745 108.485C433.989 108.638 459.882 124.441 512.395 124.441C564.953 124.441 591.536 108.61 591.797 108.45C593.995 107.111 596.864 107.798 598.211 109.993C599.555 112.186 598.876 115.051 596.685 116.402C595.537 117.112 567.866 133.776 512.397 133.776Z" fill="#FAB32F"/>
<path d="M589.591 136.813C588.783 136.813 587.994 136.892 587.217 137.004L573.816 158.072C574.884 161.603 577.108 164.625 580.043 166.717L597.7 138.956C595.305 137.598 592.542 136.813 589.591 136.813Z" fill="#D9E0F3"/>
<path d="M601.169 141.565L583.883 168.742C585.666 169.401 587.584 169.78 589.595 169.78C589.835 169.78 590.068 169.755 590.304 169.744L604.806 146.944C603.957 144.912 602.712 143.088 601.169 141.565Z" fill="#D9E0F3"/>
<path d="M512.589 178.496C521.692 178.496 529.072 171.116 529.072 162.012C529.072 152.909 521.692 145.529 512.589 145.529C503.485 145.529 496.105 152.909 496.105 162.012C496.105 171.116 503.485 178.496 512.589 178.496Z" fill="#BFCBEB"/>
<path d="M512.587 145.529C511.779 145.529 510.99 145.607 510.213 145.719L496.812 166.788C497.88 170.319 500.104 173.341 503.04 175.433L520.696 147.672C518.301 146.313 515.538 145.529 512.587 145.529Z" fill="#D9E0F3"/>
<path d="M524.161 150.281L506.875 177.458C508.658 178.117 510.576 178.496 512.588 178.496C512.827 178.496 513.06 178.471 513.296 178.46L527.798 155.66C526.949 153.628 525.705 151.804 524.161 150.281Z" fill="#D9E0F3"/>
<path d="M436.44 169.78C445.544 169.78 452.923 162.4 452.923 153.297C452.923 144.193 445.544 136.813 436.44 136.813C427.337 136.813 419.957 144.193 419.957 153.297C419.957 162.4 427.337 169.78 436.44 169.78Z" fill="#BFCBEB"/>
<path d="M436.439 136.813C435.63 136.813 434.842 136.892 434.065 137.004L420.664 158.072C421.732 161.603 423.956 164.625 426.891 166.717L444.548 138.956C442.153 137.598 439.39 136.813 436.439 136.813Z" fill="#D9E0F3"/>
<path d="M448.012 141.565L430.727 168.742C432.509 169.401 434.428 169.78 436.439 169.78C436.678 169.78 436.912 169.755 437.147 169.744L451.649 146.944C450.801 144.912 449.556 143.088 448.012 141.565Z" fill="#D9E0F3"/>
<path d="M513.014 31.0449C498.76 31.0449 485.366 34.7203 473.715 41.1586C474.768 40.7362 512.059 26.0663 549.34 46.8747C586.512 67.6223 594.008 106.378 594.253 107.699C591.801 64.9551 556.373 31.0449 513.014 31.0449Z" fill="#121212"/>
<path d="M687.963 158.269C687.963 141.685 614.627 118.574 597.703 113.461C597.703 113.461 671.354 141.348 673.121 155.528C674.887 169.7 635.451 180.998 635.413 180.998H635.415L662.245 174.374C678.023 169.424 687.963 164.011 687.963 158.269Z" fill="#6D2CF8"/>
<path d="M337.176 158.269C337.176 141.685 410.511 118.574 427.436 113.461C427.436 113.461 353.785 141.348 352.017 155.528C350.251 169.7 389.688 180.998 389.724 180.998H389.723L362.893 174.374C347.114 169.424 337.176 164.011 337.176 158.269Z" fill="#6D2CF8"/>
<defs>
<linearGradient id="paint0_linear_898_408" x1="513.018" y1="139.773" x2="513.018" y2="385.185" gradientUnits="userSpaceOnUse">
<stop stop-color="white"/>
<stop offset="0.0985" stop-color="#F7F8FB"/>
<stop offset="0.4121" stop-color="#E1E6EF"/>
<stop offset="0.7167" stop-color="#D4DBE8"/>
<stop offset="1" stop-color="#D0D7E6"/>
</linearGradient>
<linearGradient id="paint1_linear_898_408" x1="513.019" y1="366.049" x2="513.019" y2="404" gradientUnits="userSpaceOnUse">
<stop stop-color="white"/>
<stop offset="0.5954" stop-color="#E6EAF2"/>
<stop offset="1" stop-color="#DBE0EC"/>
</linearGradient>
</defs>
</svg>
