<svg width="31" height="15" viewBox="0 0 31 15" fill="none" xmlns="http://www.w3.org/2000/svg">
<circle cx="8" cy="7.5" r="7.5" fill="#121212"/>
<path d="M15.5 2C15.5 0.895431 16.4109 -0.0259812 17.4764 0.265093C17.7798 0.347975 18.0783 0.450034 18.3701 0.570904C19.2801 0.947814 20.1069 1.50026 20.8033 2.1967C21.4997 2.89314 22.0522 3.71993 22.4291 4.62988C22.806 5.53982 23 6.51509 23 7.5C23 8.48492 22.806 9.46019 22.4291 10.3701C22.0522 11.2801 21.4997 12.1069 20.8033 12.8033C20.1069 13.4997 19.2801 14.0522 18.3701 14.4291C18.0783 14.55 17.7798 14.652 17.4764 14.7349C16.4109 15.026 15.5 14.1046 15.5 13L15.5 2Z" fill="#121212"/>
<path d="M23 2C23 0.895431 23.9109 -0.0259812 24.9764 0.265093C25.2798 0.347975 25.5783 0.450034 25.8701 0.570904C26.7801 0.947814 27.6069 1.50026 28.3033 2.1967C28.9997 2.89314 29.5522 3.71993 29.9291 4.62988C30.306 5.53982 30.5 6.51509 30.5 7.5C30.5 8.48492 30.306 9.46019 29.9291 10.3701C29.5522 11.2801 28.9997 12.1069 28.3033 12.8033C27.6069 13.4997 26.7801 14.0522 25.8701 14.4291C25.5783 14.55 25.2798 14.652 24.9764 14.7349C23.9109 15.026 23 14.1046 23 13L23 2Z" fill="#121212"/>
</svg>
