<svg width="46" height="46" viewBox="0 0 46 46" fill="none" xmlns="http://www.w3.org/2000/svg">
<g clip-path="url(#clip0_898_7383)">
<path d="M8.16518 22.0433H1.4375C1.09016 22.0433 0.808594 22.3249 0.808594 22.6723V36.627C0.808594 36.9743 1.09016 37.2559 1.4375 37.2559H8.16518C8.51252 37.2559 8.79409 36.9743 8.79409 36.627V22.6723C8.79409 22.3249 8.51261 22.0433 8.16518 22.0433ZM7.53627 35.9981H2.06641V23.3012H7.53627V35.9981ZM20.2977 15.9722H13.5699C13.2226 15.9722 12.941 16.2538 12.941 16.6011V36.627C12.941 36.9743 13.2226 37.2559 13.5699 37.2559H20.2977C20.645 37.2559 20.9266 36.9743 20.9266 36.627V16.6011C20.9266 16.2538 20.645 15.9722 20.2977 15.9722ZM19.6688 35.9981H14.1988V17.2301H19.6688V35.9981ZM44.5625 3.82995H37.8347C37.4874 3.82995 37.2058 4.11152 37.2058 4.45886V19.324H33.0589V10.53C33.0589 10.1827 32.7773 9.90114 32.43 9.90114H25.7022C25.3549 9.90114 25.0733 10.1827 25.0733 10.53V36.627C25.0733 36.9743 25.3549 37.2559 25.7022 37.2559H28.8542L29.5769 38.5077C29.6892 38.7024 29.8969 38.8222 30.1216 38.8222H30.4224V38.8622C30.4224 39.9994 31.2664 40.943 32.3609 41.1001V44.6862C32.3609 45.0336 32.6425 45.3151 32.9898 45.3151H37.275C37.6223 45.3151 37.9039 45.0336 37.9039 44.6862V41.1001C38.9984 40.9429 39.8424 39.9994 39.8424 38.8622V38.8222H40.1432C40.3679 38.8222 40.5755 38.7024 40.6878 38.5077L41.4106 37.2559H44.5625C44.9098 37.2559 45.1914 36.9743 45.1914 36.627V4.45886C45.1914 4.11152 44.9098 3.82995 44.5625 3.82995ZM29.0117 35.0131H30.4224V37.4565L29.0117 35.0131ZM30.4224 31.3915L29.0117 28.9481H30.4224V31.3915ZM30.4224 25.3264L29.0117 22.8831H30.4224V25.3264ZM30.4224 21.5853V21.6253H27.9224C27.6977 21.6253 27.49 21.7452 27.3777 21.9398C27.2654 22.1344 27.2654 22.3741 27.3777 22.5687L29.5769 26.3777C29.6892 26.5723 29.8969 26.6921 30.1216 26.6921H30.4224V27.6903H27.9224C27.6977 27.6903 27.49 27.8101 27.3777 28.0047C27.2654 28.1993 27.2654 28.439 27.3777 28.6337L29.5769 32.4427C29.6892 32.6373 29.8969 32.7571 30.1216 32.7571H30.4224V33.7552H27.9224C27.6977 33.7552 27.49 33.875 27.3777 34.0696C27.2654 34.2642 27.2654 34.504 27.3777 34.6986L28.1279 35.998H26.331V11.1589H31.801V19.5035C30.9915 19.848 30.4224 20.6515 30.4224 21.5853ZM33.6187 44.0572V41.1234H36.6461V44.0572H33.6187ZM38.5846 38.8621C38.5846 39.4154 38.1344 39.8656 37.5811 39.8656H32.6837C32.1304 39.8656 31.6803 39.4153 31.6803 38.8621V21.5853C31.6803 21.032 32.1305 20.5819 32.6837 20.5819H37.5811C38.1344 20.5819 38.5846 21.0321 38.5846 21.5853V38.8621ZM39.8424 22.8831H41.253L39.8424 25.3264V22.8831ZM39.8424 28.9481H41.253L39.8424 31.3915V28.9481ZM39.8424 37.4564V35.0131H41.253L39.8424 37.4564ZM43.9336 35.9981H42.1368L42.887 34.6987C42.9993 34.5041 42.9993 34.2644 42.887 34.0698C42.7747 33.8752 42.5671 33.7554 42.3424 33.7554H39.8424V32.7572H40.1432C40.3679 32.7572 40.5755 32.6374 40.6878 32.4428L42.887 28.6337C42.9993 28.4391 42.9993 28.1994 42.887 28.0048C42.7747 27.8102 42.5671 27.6904 42.3424 27.6904H39.8424V26.6922H40.1432C40.3679 26.6922 40.5755 26.5724 40.6878 26.3778L42.887 22.5688C42.9993 22.3741 42.9993 22.1344 42.887 21.9398C42.7747 21.7452 42.5671 21.6254 42.3424 21.6254H39.8424V21.5854C39.8424 20.6515 39.2733 19.8481 38.4636 19.5036V5.08776H43.9336V35.9981ZM35.1324 21.2837C33.5471 21.2837 32.2574 22.5734 32.2574 24.1587C32.2574 25.744 33.5471 27.0337 35.1324 27.0337C36.7177 27.0337 38.0074 25.744 38.0074 24.1587C38.0074 22.5734 36.7177 21.2837 35.1324 21.2837ZM35.1324 25.7759C34.2407 25.7759 33.5152 25.0504 33.5152 24.1587C33.5152 23.267 34.2407 22.5415 35.1324 22.5415C36.0241 22.5415 36.7496 23.267 36.7496 24.1587C36.7496 25.0504 36.0241 25.7759 35.1324 25.7759ZM35.1324 27.3487C33.5471 27.3487 32.2574 28.6384 32.2574 30.2237C32.2574 31.809 33.5471 33.0987 35.1324 33.0987C36.7177 33.0987 38.0074 31.809 38.0074 30.2237C38.0074 28.6384 36.7177 27.3487 35.1324 27.3487ZM35.1324 31.8409C34.2407 31.8409 33.5152 31.1154 33.5152 30.2237C33.5152 29.332 34.2407 28.6065 35.1324 28.6065C36.0241 28.6065 36.7496 29.332 36.7496 30.2237C36.7496 31.1154 36.0241 31.8409 35.1324 31.8409ZM35.1324 33.4137C33.5471 33.4137 32.2574 34.7034 32.2574 36.2887C32.2574 37.874 33.5471 39.1637 35.1324 39.1637C36.7177 39.1637 38.0074 37.874 38.0074 36.2887C38.0074 34.7034 36.7177 33.4137 35.1324 33.4137ZM35.1324 37.9059C34.2407 37.9059 33.5152 37.1804 33.5152 36.2887C33.5152 35.397 34.2407 34.6715 35.1324 34.6715C36.0241 34.6715 36.7496 35.397 36.7496 36.2887C36.7496 37.1804 36.0241 37.9059 35.1324 37.9059ZM25.0666 6.35815C25.0383 6.35815 25.0095 6.35627 24.9807 6.35231C24.6365 6.30532 24.3956 5.98827 24.4427 5.64407L24.81 2.95478C19.1426 7.92584 12.2419 11.9205 4.76621 14.5462C4.6973 14.5705 4.62695 14.5819 4.55777 14.5819C4.29821 14.5819 4.05528 14.42 3.96445 14.1613C3.84936 13.8336 4.02168 13.4746 4.34943 13.3595C11.6628 10.7907 18.4115 6.88787 23.9537 2.03325L21.3199 2.17143C20.9721 2.18976 20.6771 1.92311 20.6589 1.57631C20.6407 1.22942 20.9072 0.933476 21.2541 0.915328L25.6361 0.685418C25.8234 0.675714 26.005 0.749746 26.132 0.887656C26.2588 1.02557 26.3176 1.21289 26.2922 1.3986L25.6891 5.81433C25.6459 6.12959 25.3762 6.35815 25.0666 6.35815Z" fill="#FED91F"/>
</g>
<defs>
<clipPath id="clip0_898_7383">
<rect width="46" height="46" fill="white"/>
</clipPath>
</defs>
</svg>
