<svg width="20" height="20" viewBox="0 0 20 20" fill="none" xmlns="http://www.w3.org/2000/svg">
<path fill-rule="evenodd" clip-rule="evenodd" d="M10.033 2.76621L10.6771 4.46264C10.6965 4.51366 10.7416 4.54638 10.796 4.54906L12.6085 4.63738C12.6652 4.64014 12.712 4.6759 12.7295 4.72995C12.7471 4.784 12.7303 4.84041 12.686 4.87601L11.2717 6.01278C11.2291 6.04694 11.2119 6.09995 11.2262 6.15257L11.7023 7.90357C11.7172 7.95842 11.6976 8.01391 11.6517 8.04731C11.6057 8.08071 11.5469 8.08215 11.4993 8.05102L9.98107 7.05719C9.93545 7.02731 9.87972 7.02731 9.83409 7.05719L8.31592 8.05102C8.26838 8.08215 8.20953 8.08071 8.16359 8.04731C8.11761 8.01391 8.09807 7.95838 8.11297 7.90357L8.58902 6.15257C8.60332 6.09995 8.5861 6.04694 8.54359 6.01278L7.12925 4.87601C7.08494 4.84041 7.06812 4.784 7.0857 4.72995C7.10324 4.6759 7.15002 4.64018 7.20679 4.63738L9.0192 4.54906C9.07369 4.54642 9.11875 4.51366 9.13809 4.46264L9.78216 2.76621C9.80233 2.71308 9.85075 2.67968 9.9076 2.67968C9.96445 2.67968 10.0129 2.71308 10.033 2.76621ZM6.52289 2.23252L7.65651 3.25328C7.7875 3.37117 7.98929 3.36055 8.10718 3.22955C8.22507 3.09855 8.21445 2.89677 8.08345 2.77888L6.94983 1.75812C6.81884 1.64022 6.61705 1.65085 6.49916 1.78185C6.38126 1.91284 6.39185 2.11463 6.52289 2.23252ZM12.8653 1.75812L11.7251 2.78483C11.5941 2.90272 11.5835 3.10451 11.7014 3.2355C11.8192 3.3665 12.021 3.37713 12.152 3.25923L13.2923 2.23252C13.4233 2.11463 13.4339 1.91284 13.316 1.78185C13.1981 1.65085 12.9963 1.64022 12.8653 1.75812ZM10.2272 1.49249C10.2272 1.66899 10.0841 1.81209 9.9076 1.81209C9.7311 1.81209 9.588 1.66899 9.588 1.49249V0.319599C9.588 0.143101 9.7311 0 9.9076 0C10.0841 0 10.2272 0.143101 10.2272 0.319599V1.49249ZM9.9076 9.0765C11.146 9.0765 12.15 10.0804 12.15 11.3188C12.15 12.5572 11.146 13.5612 9.9076 13.5612C8.6692 13.5612 7.66529 12.5572 7.66529 11.3188C7.66529 10.0804 8.6692 9.0765 9.9076 9.0765ZM14.317 17.9184C14.0789 15.6935 12.1957 13.9607 9.9076 13.9607C7.61951 13.9607 5.73631 15.6935 5.49821 17.9184V18.8148C5.49821 19.4676 6.03062 20 6.68341 20H13.1318C13.7845 20 14.317 19.4676 14.317 18.8148V17.9184ZM16.6091 10.7049C17.5356 10.7049 18.2867 11.456 18.2867 12.3824C18.2867 13.3089 17.5356 14.0599 16.6091 14.0599C15.6826 14.0599 14.9316 13.3089 14.9316 12.3824C14.9315 11.456 15.6826 10.7049 16.6091 10.7049ZM3.20609 10.7049C4.13256 10.7049 4.88362 11.456 4.88362 12.3824C4.88362 13.3089 4.13256 14.0599 3.20609 14.0599C2.27961 14.0599 1.52855 13.3089 1.52855 12.3824C1.52855 11.456 2.27961 10.7049 3.20609 10.7049ZM3.20605 14.508C4.1837 14.508 5.06256 14.9309 5.6698 15.6036C5.24125 16.2525 4.95709 17.0076 4.86552 17.826H0.760512C0.511744 17.826 0.297692 17.7179 0.150078 17.5176C0.00246269 17.3174 -0.0375272 17.0809 0.0360606 16.8433C0.454935 15.4906 1.71579 14.508 3.20605 14.508ZM16.6091 14.508C18.0994 14.508 19.3602 15.4906 19.7791 16.8433C19.8527 17.0809 19.8127 17.3174 19.665 17.5176C19.5174 17.7179 19.3034 17.826 19.0546 17.826H14.9496C14.858 17.0076 14.5738 16.2525 14.1453 15.6036C14.7526 14.9309 15.6315 14.508 16.6091 14.508ZM2.9542 2.76621L3.59827 4.46264C3.61765 4.51366 3.66271 4.54638 3.7172 4.54906L5.52961 4.63738C5.58638 4.64014 5.63312 4.6759 5.6507 4.72995C5.66824 4.784 5.65146 4.84041 5.60715 4.87601L4.19281 6.01278C4.1503 6.04694 4.13308 6.09995 4.14739 6.15257L4.62343 7.90357C4.63833 7.95842 4.61879 8.01391 4.57281 8.04731C4.52683 8.08071 4.46802 8.08215 4.42044 8.05102L2.90223 7.05719C2.8566 7.02731 2.80087 7.02731 2.75525 7.05719L1.23707 8.05102C1.18953 8.08215 1.13069 8.08071 1.08475 8.04731C1.03876 8.01391 1.01923 7.95838 1.03413 7.90357L1.51017 6.15257C1.52447 6.09995 1.50726 6.04694 1.46475 6.01278L0.0504025 4.87597C0.0060981 4.84037 -0.0107208 4.78396 0.00685718 4.72991C0.0243952 4.67586 0.0711765 4.64014 0.127945 4.63735L1.94035 4.54902C1.99484 4.54638 2.03991 4.51362 2.05924 4.4626L2.70336 2.76621C2.72353 2.71308 2.77195 2.67968 2.8288 2.67968C2.88565 2.67968 2.93403 2.71308 2.9542 2.76621ZM17.0907 2.76621L17.7348 4.46264C17.7542 4.51366 17.7992 4.54638 17.8537 4.54906L19.6661 4.63738C19.7229 4.64014 19.7696 4.6759 19.7872 4.72995C19.8048 4.784 19.788 4.84041 19.7437 4.87601L18.3293 6.01278C18.2868 6.04694 18.2696 6.09995 18.2839 6.15257L18.7599 7.90357C18.7748 7.95842 18.7553 8.01391 18.7094 8.04731C18.6634 8.08071 18.6046 8.08215 18.557 8.05102L17.0388 7.05719C16.9932 7.02731 16.9374 7.02731 16.8918 7.05719L15.3736 8.05102C15.3261 8.08215 15.2672 8.08071 15.2213 8.04731C15.1753 8.01391 15.1557 7.95838 15.1706 7.90357L15.6467 6.15257C15.661 6.09995 15.6438 6.04694 15.6013 6.01278L14.1869 4.87601C14.1426 4.84041 14.1258 4.784 14.1434 4.72995C14.1609 4.6759 14.2077 4.64018 14.2645 4.63738L16.0769 4.54906C16.1314 4.54642 16.1764 4.51366 16.1958 4.46264L16.8398 2.76621C16.86 2.71308 16.9084 2.67968 16.9653 2.67968C17.0221 2.67968 17.0705 2.71308 17.0907 2.76621Z" fill="#121212"/>
</svg>
