<svg width="392" height="259" viewBox="0 0 392 259" fill="none" xmlns="http://www.w3.org/2000/svg">
<g opacity="0.05">
<path d="M276.31 198.186C274.681 217.227 262.588 239.908 222.929 257.33C327.038 252.851 389.639 160.972 389.639 86.3333C389.639 39.4731 351.871 1.5 305.3 1.5C258.728 1.5 220.96 39.4731 220.96 86.3333C220.96 119.524 239.909 148.261 267.518 162.2L267.884 162.385L268.106 162.73L266.842 163.539C268.106 162.73 268.106 162.731 268.107 162.732L268.109 162.736L268.117 162.748L268.142 162.787C268.163 162.821 268.193 162.869 268.231 162.931C268.307 163.056 268.415 163.237 268.551 163.472C268.824 163.943 269.206 164.63 269.658 165.513C270.56 167.277 271.741 169.828 272.867 172.998C275.117 179.331 277.166 188.181 276.31 198.186ZM61.7112 198.186C60.082 217.227 47.9891 239.908 8.32965 257.33C112.439 252.851 175.04 160.972 175.04 86.3333C175.04 39.4731 137.272 1.5 90.7004 1.5C44.1291 1.5 6.36084 39.4731 6.36084 86.3333C6.36084 119.524 25.3095 148.261 52.9192 162.2L53.2854 162.385L53.5066 162.73L52.2432 163.539C53.5066 162.73 53.5072 162.731 53.5081 162.732L53.5104 162.736L53.5178 162.748L53.5427 162.787C53.5637 162.821 53.5935 162.869 53.6315 162.931C53.7076 163.056 53.8162 163.237 53.9524 163.472C54.2246 163.943 54.6072 164.63 55.0587 165.513C55.9613 167.277 57.1417 169.828 58.2678 172.998C60.5175 179.331 62.5672 188.181 61.7112 198.186Z" stroke="#6D2CF8" stroke-width="3"/>
</g>
</svg>
