<svg width="113" height="120" viewBox="0 0 113 120" fill="none" xmlns="http://www.w3.org/2000/svg">
<path d="M25.8069 87.3998C25.4755 86.346 24.3521 85.7592 23.2983 86.0906C22.2436 86.422 21.6577 87.5454 21.9891 88.6001L23.8751 94.5995C24.1369 95.4326 24.9087 95.9994 25.7812 96.0003C25.9845 95.9994 26.1868 95.9682 26.3809 95.9078C26.8872 95.7485 27.3093 95.3951 27.5546 94.9245C27.8 94.4549 27.8485 93.9055 27.6892 93.4002L25.8069 87.3998Z" fill="white"/>
<path d="M34.9751 75.9999H38.975C40.0801 75.9999 40.9755 75.1046 40.9755 74.0004C40.9755 72.8954 40.0801 72 38.975 72H34.9751C33.871 72 32.9756 72.8954 32.9756 74.0004C32.9756 75.1046 33.871 75.9999 34.9751 75.9999Z" fill="white"/>
<path d="M19.4768 80.6005C19.7396 81.4336 20.5114 82.0003 21.3848 82.0003C21.5889 81.9994 21.7913 81.9692 21.9854 81.9078C22.4907 81.7495 22.9137 81.3951 23.1581 80.9255C23.4035 80.4549 23.452 79.9065 23.2927 79.4002L22.2252 75.9999H26.975C28.08 75.9999 28.9754 75.1046 28.9754 74.0004C28.9754 72.8954 28.08 72 26.975 72H19.5015C18.8643 72 18.2656 72.303 17.8884 72.8167C17.5121 73.3303 17.4022 73.9922 17.5927 74.6001L19.4768 80.6005Z" fill="white"/>
<path d="M36.9756 86.0004C36.9756 89.2368 39.9272 90.7108 42.0815 91.8002C43.7752 92.6361 44.9755 93.2925 44.9755 94.0002C44.9077 95.076 44.0508 95.9329 42.975 96.0007C41.8709 96.0007 40.9755 95.1053 40.9755 94.0002C40.9755 92.8961 40.0801 92.0007 38.9751 92.0007C37.871 92.0007 36.9756 92.8961 36.9756 94.0002C36.9756 97.3145 39.6617 100.001 42.975 100.001C46.2545 99.9173 48.8921 97.2787 48.9754 94.0002C48.9754 90.7639 46.0237 89.2899 43.8695 88.2004C42.1758 87.3645 40.9755 86.7081 40.9755 86.0004C41.0433 84.9246 41.9002 84.0677 42.975 83.9999C44.0801 83.9999 44.9755 84.8953 44.9755 86.0004C44.9755 87.1045 45.8708 87.9999 46.975 87.9999C48.08 87.9999 48.9754 87.1045 48.9754 86.0004C48.9754 82.6862 46.2892 80 42.975 80C39.6965 80.0833 37.0589 82.7219 36.9756 86.0004Z" fill="#FED91F"/>
<path d="M56.9755 100.001H60.9755C62.0805 100.001 62.9759 99.1052 62.9759 98.0002C62.9759 96.8961 62.0805 96.0007 60.9755 96.0007H56.9755V92.0007H60.9755C62.0805 92.0007 62.9759 91.1044 62.9759 90.0003C62.9759 88.8962 62.0805 87.9999 60.9755 87.9999H56.9755V83.9999H60.9755C62.0805 83.9999 62.9759 83.1046 62.9759 82.0004C62.9759 80.8954 62.0805 80 60.9755 80H56.9755C54.7664 80 52.9756 81.7908 52.9756 83.9999V96.0007C52.9756 98.2098 54.7664 100.001 56.9755 100.001Z" fill="#FED91F"/>
<path d="M73.9757 100.001C77.8411 100.001 80.9758 96.8658 80.9758 93.0005V87.0001C80.9758 83.1348 77.8411 80 73.9757 80C70.1094 80 66.9756 83.1348 66.9756 87.0001V93.0005C66.9756 94.8572 67.7126 96.637 69.0255 97.9498C70.3383 99.2627 72.119 100.001 73.9757 100.001ZM70.9755 87.0001C70.9755 85.343 72.3186 83.9999 73.9757 83.9999C75.6319 83.9999 76.975 85.343 76.975 87.0001V93.0005C76.975 94.6576 75.6319 96.0007 73.9757 96.0007C72.3186 96.0007 70.9755 94.6576 70.9755 93.0005V87.0001Z" fill="#FED91F"/>
<path d="M1.30541 103.8C1.33562 103.965 1.38689 104.127 1.45739 104.28L7.17485 116.534C8.16271 118.641 10.2757 119.991 12.603 120H101.347C103.679 119.994 105.797 118.643 106.787 116.532L112.493 104.274C112.563 104.121 112.614 103.96 112.645 103.794C113.612 98.4979 112.385 93.0359 109.245 88.6624L103.045 80.0436L104.599 75.0961C105.405 72.55 104.939 69.7714 103.346 67.6282C101.629 65.332 98.9254 63.9853 96.0588 63.9999H91.0729C88.4709 61.1993 85.3224 58.9618 81.8215 57.4265C77.741 55.6577 74.4011 54.0921 71.8907 52.782L71.8688 52.7664C70.7527 52.1823 69.9013 51.6998 69.2375 51.2997C70.9862 49.0494 72.3146 46.5024 73.1587 43.7796C73.8719 43.5663 74.543 43.233 75.1454 42.7963C75.4613 43.5251 76.18 43.9984 76.9747 44.0002H82.975C85.1842 44.0002 86.975 42.2095 86.975 40.0003V32.0004C86.975 29.7913 85.1842 27.9996 82.975 27.9996H82.4834C83.7313 21.5506 82.2106 14.8737 78.293 9.60022C73.6055 3.41034 66.0332 0 56.975 0C47.9167 0 40.3453 3.41034 35.6569 9.60022C31.7357 14.8718 30.2123 21.5488 31.4574 27.9996H30.9749C28.7657 27.9996 26.975 29.7913 26.975 32.0004V40.0003C26.975 42.2095 28.7657 44.0002 30.9749 44.0002H36.2593C37.9659 45.1877 39.8674 46.0675 41.877 46.6003C42.6012 48.2895 43.5561 49.8715 44.7133 51.2997C44.0486 51.6998 43.1972 52.1823 42.0812 52.7664L42.0592 52.782C39.5488 54.0921 36.209 55.6577 32.1294 57.4265C28.6275 58.9618 25.479 61.1993 22.8771 63.9999H17.8911C15.0292 63.989 12.3302 65.3348 10.6172 67.6282C9.0233 69.7714 8.5573 72.55 9.36296 75.0961L10.9175 80.0436L4.71666 88.6624C1.57183 93.0359 0.340442 98.4998 1.30541 103.8ZM20.9755 114C20.9755 112.896 21.8709 112 22.975 112H90.9749C92.08 112 92.9753 112.896 92.9753 114C92.9753 115.105 92.08 116 90.9749 116H22.975C21.8709 116 20.9755 115.105 20.9755 114ZM105.991 90.9998C108.448 94.4174 109.442 98.6719 108.755 102.824L103.155 114.844C102.825 115.548 102.119 115.999 101.341 116.002H96.6329C96.6933 115.834 96.7253 115.652 96.7693 115.478C96.7995 115.36 96.8389 115.248 96.8608 115.128C96.935 114.757 96.9725 114.379 96.9753 114C96.968 113.513 96.9011 113.03 96.7748 112.56C96.7409 112.422 96.6933 112.294 96.6512 112.16C96.5459 111.83 96.4122 111.509 96.2511 111.202C96.187 111.082 96.1312 110.962 96.0515 110.848C95.8116 110.453 95.5278 110.086 95.2046 109.754C94.876 109.434 94.5116 109.153 94.1188 108.916C94.0731 108.888 94.0392 108.846 93.9934 108.818L101.533 84.8181L105.991 90.9998ZM85.175 63.9999H68.1755C70.1924 62.3026 71.6765 60.0577 72.4474 57.5363C74.6474 58.6084 77.2274 59.7922 80.2468 61.0977C82.0018 61.8613 83.6562 62.8354 85.175 63.9999ZM45.1555 55.6577L45.1775 55.6458C45.6774 55.3702 46.1434 55.1038 46.5773 54.8456L46.8053 54.7119C47.2548 54.44 47.6732 54.1763 48.033 53.9301L48.8451 54.3118C48.9888 54.3796 49.1573 54.462 49.2928 54.5242C49.5729 54.6542 49.8229 54.7623 50.0691 54.8721L50.4949 55.0598C50.7155 55.1523 50.9169 55.2264 51.1174 55.3024C51.2392 55.3482 51.3729 55.4022 51.4891 55.4443C51.6887 55.5084 51.8672 55.556 52.0513 55.6082C52.1611 55.6384 52.2792 55.6778 52.3891 55.7043C52.5768 55.7483 52.7727 55.7776 52.965 55.8078C53.073 55.8261 53.1792 55.8517 53.2909 55.8664C53.5033 55.8939 53.7367 55.9103 53.9693 55.9259C54.0792 55.9259 54.1689 55.9479 54.2952 55.9543C54.5607 55.968 54.8693 55.9744 55.1769 55.9799H55.4973H56.985H58.4755H58.7813C59.0953 55.9799 59.4075 55.968 59.6767 55.9543C59.7875 55.9543 59.8772 55.936 59.9834 55.9277C60.2233 55.9103 60.4631 55.8939 60.6792 55.8664C60.7854 55.8517 60.8788 55.8298 60.9868 55.8124C61.1873 55.7803 61.3869 55.7483 61.5874 55.7043C61.6909 55.6778 61.8007 55.6421 61.9069 55.6119C62.0973 55.5597 62.2869 55.5103 62.4874 55.4416C62.5972 55.4041 62.7254 55.3519 62.8408 55.3079C63.0413 55.2301 63.2555 55.1541 63.4807 55.058C63.607 55.0058 63.7572 54.9362 63.8808 54.8776C64.1307 54.7678 64.3871 54.6561 64.681 54.5224L65.1094 54.3219L65.9371 53.9218C66.2969 54.1681 66.7153 54.4318 67.1648 54.7037L67.3928 54.8383C67.8185 55.0909 68.2854 55.3583 68.7935 55.6384L68.8155 55.6503C67.8469 60.4239 62.9112 63.9999 56.975 63.9999C51.0387 63.9999 46.1031 60.4239 45.1555 55.6577ZM42.4373 21.9598C42.4574 21.8518 42.4831 21.7438 42.5051 21.6357C42.5508 21.4096 42.5994 21.1844 42.6589 20.9583C42.6927 20.8319 42.733 20.7056 42.7715 20.5801C42.8328 20.3796 42.8987 20.1682 42.9711 19.9622C43.0187 19.8322 43.0709 19.7021 43.123 19.5621C43.2054 19.3616 43.2915 19.162 43.3849 18.9716C43.4462 18.8388 43.5131 18.7106 43.5854 18.588C43.687 18.3884 43.7987 18.1879 43.915 18.0084C43.9891 17.8857 44.0615 17.7658 44.1393 17.6459C44.2711 17.4463 44.4148 17.2458 44.5613 17.0599C44.641 16.9556 44.7151 16.8503 44.7994 16.7477C44.9889 16.5161 45.1995 16.2918 45.399 16.0703C45.4531 16.0144 45.5007 15.9558 45.5574 15.9C45.8385 15.6207 46.1351 15.3571 46.4455 15.1099C46.5215 15.0504 46.6048 14.9963 46.6835 14.9359C46.9289 14.7501 47.1807 14.566 47.4507 14.3939C47.5752 14.3124 47.7135 14.2383 47.8508 14.1595C48.0889 14.0204 48.3315 13.8821 48.5869 13.7604C48.7407 13.6816 48.9055 13.6084 49.0666 13.5342C49.3193 13.418 49.5775 13.3081 49.8448 13.2037C50.0234 13.1342 50.2046 13.0682 50.3914 13.0042C50.6652 12.9099 50.949 12.822 51.241 12.7396C51.4415 12.6837 51.6411 12.6297 51.8407 12.5803C52.1474 12.5061 52.4687 12.4402 52.7928 12.3798C52.9933 12.3404 53.1929 12.3001 53.4172 12.2662C53.7834 12.2104 54.1689 12.1683 54.5571 12.1298C54.7566 12.1097 54.9315 12.084 55.1274 12.0703C55.7271 12.0264 56.3268 11.9998 56.9786 11.9998C57.6314 11.9998 58.2375 12.0264 58.8307 12.0703C59.0312 12.084 59.2089 12.1097 59.4011 12.1298C59.7893 12.1683 60.1747 12.2104 60.5409 12.2662C60.7552 12.3001 60.9593 12.3404 61.1653 12.3798C61.4894 12.4402 61.8108 12.5061 62.1175 12.5803C62.3171 12.6297 62.5167 12.6837 62.7172 12.7396C63.0092 12.822 63.293 12.9099 63.5668 13.0042C63.7535 13.0682 63.9348 13.1342 64.1133 13.2037C64.3807 13.3081 64.6388 13.418 64.8915 13.5342C65.0527 13.6084 65.2175 13.6816 65.3713 13.7604C65.6267 13.8904 65.8693 14.0277 66.1074 14.1595C66.2374 14.2383 66.3747 14.3124 66.5074 14.3939C66.7775 14.566 67.0293 14.7501 67.2747 14.9359C67.3534 14.9963 67.4367 15.0504 67.5127 15.1099C67.8231 15.3571 68.1197 15.6207 68.4008 15.9C68.4575 15.9558 68.5051 16.0144 68.5591 16.0703C68.7734 16.2918 68.9794 16.5161 69.1689 16.7477C69.2531 16.8503 69.3273 16.9482 69.4069 17.0599C69.5534 17.2604 69.6971 17.4481 69.829 17.6459C69.9068 17.7658 69.9791 17.8857 70.0533 18.0084C70.1686 18.208 70.2812 18.392 70.3829 18.588C70.4488 18.7143 70.5147 18.8425 70.5834 18.9716C70.6768 19.1721 70.7628 19.3716 70.8452 19.5621C70.8974 19.6939 70.9487 19.8239 70.9972 19.9622C71.0732 20.1617 71.1391 20.3741 71.1968 20.5801C71.2352 20.7056 71.2755 20.8319 71.3094 20.9583C71.3689 21.1844 71.4174 21.4096 71.4632 21.6357C71.4852 21.7438 71.5108 21.8518 71.5309 21.9598L71.541 22.034C68.0309 19.4669 63.4615 18.847 59.3947 20.3879C57.8539 21.0013 56.1363 21.0013 54.5955 20.3879C50.5287 18.8489 45.9593 19.4678 42.4492 22.034L42.4373 21.9598ZM82.975 40.0003H78.9751V35.3604C78.9751 35.2625 78.9751 35.1599 78.9751 35.0702V32.0004H82.975V40.0003ZM38.8475 12.0163C42.7614 6.84631 49.1994 3.99994 56.975 3.99994C64.7515 3.99994 71.1894 6.84631 75.1033 12.0163C78.4807 16.6086 79.6819 22.4478 78.391 27.9996H76.9747C76.2303 28.006 75.551 28.428 75.2169 29.0936C75.367 28.2697 75.4833 27.366 75.5675 26.3937C75.5675 26.3443 75.595 26.2976 75.5995 26.2482C75.6572 25.5322 75.6911 24.7842 75.6911 23.9996C75.6911 16.0364 69.9031 7.99988 56.975 7.99988C44.0468 7.99988 38.2588 16.0364 38.2588 23.9996C38.2588 24.7842 38.2927 25.5322 38.3513 26.2482C38.3513 26.2976 38.3751 26.3443 38.3834 26.3937C38.4667 27.366 38.5829 28.2697 38.7331 29.0936C38.3989 28.428 37.7196 28.006 36.9753 27.9996H35.5589C34.2681 22.4478 35.4692 16.6086 38.8475 12.0163ZM30.9749 32.0004H34.9748V35.0702V35.3604V40.0003H30.9749V32.0004ZM52.975 44.0002C50.2413 44.0286 47.5112 43.765 44.8332 43.2138C44.6135 42.5977 44.4194 42.0044 44.283 41.4917C44.0523 40.6128 43.2576 40.0003 42.3494 40.0003C41.2709 40.0003 40.0588 38.8577 39.4014 37.2198C38.7505 36.0306 38.8091 34.5795 39.5534 33.446C39.7777 33.2611 40.0633 33.1686 40.3527 33.186C40.5229 33.187 40.6923 33.2043 40.8589 33.2382C41.5328 33.371 42.2267 33.1485 42.6991 32.6495C43.1706 32.1506 43.3528 31.4447 43.1835 30.78C42.8603 29.5239 42.6167 28.2486 42.4547 26.9623C46.6268 23.6444 49.7707 22.7939 53.0995 24.1122C55.587 25.0964 58.3556 25.0964 60.8431 24.1122C64.171 22.7939 67.3149 23.6444 71.487 26.9623C71.3249 28.2486 71.0823 29.5239 70.7592 30.78C70.5889 31.4447 70.772 32.1506 71.2435 32.6495C71.715 33.1485 72.4098 33.371 73.0828 33.2382C73.5277 33.1055 74.0084 33.1787 74.3929 33.4378C75.1372 34.5712 75.1958 36.0223 74.5449 37.2116C73.8875 38.8504 72.6753 39.9921 71.5969 39.9921C70.6868 39.9911 69.8912 40.6055 69.6614 41.4862C69.1808 43.3301 67.1932 48.8864 64.4612 50.1883C62.2429 51.622 59.6034 52.261 56.975 52.0001C56.509 52.0001 56.1006 52.0001 55.739 52.0001C55.0908 52.0056 54.4435 51.9653 53.8008 51.8802C52.2847 51.5396 50.8281 50.9729 49.4814 50.1984C48.4285 49.5813 47.5551 48.6996 46.949 47.6404C48.9476 47.8885 50.9609 48.0084 52.975 48.0002C54.0801 48.0002 54.9755 47.1048 54.9755 45.9998C54.9755 44.8956 54.0801 44.0002 52.975 44.0002ZM33.7187 61.0977C36.7327 59.7922 39.319 58.6084 41.519 57.5363C42.2881 60.0568 43.7694 62.3016 45.7854 63.9999H28.7749C30.2983 62.8345 31.9591 61.8604 33.7187 61.0977ZM13.8426 70.0003C14.792 68.7204 16.2981 67.9761 17.8911 67.9999H96.0588C97.6519 67.9761 99.1579 68.7204 100.107 70.0003C100.942 71.1172 101.189 72.5693 100.771 73.9005L90.0594 108H23.8915L13.1752 73.8959C12.7587 72.5656 13.0077 71.1163 13.8426 70.0003ZM7.95946 90.9998L12.4153 84.8099L19.9547 108.81C19.9089 108.838 19.875 108.88 19.8293 108.908C19.4365 109.145 19.0721 109.426 18.7435 109.746C18.4203 110.078 18.1365 110.445 17.8975 110.84C17.8252 110.954 17.7693 111.074 17.697 111.194C17.5377 111.501 17.4031 111.821 17.2969 112.15C17.2548 112.284 17.2072 112.412 17.1733 112.55C17.047 113.024 16.9811 113.511 16.9747 114C16.9774 114.378 17.0159 114.755 17.0891 115.126C17.1111 115.246 17.1514 115.358 17.1807 115.474C17.2255 115.65 17.2566 115.832 17.3171 116H12.603C11.8257 115.999 11.1189 115.549 10.7912 114.844L5.19091 102.822C4.50518 98.67 5.50127 94.4156 7.95946 90.9998Z" fill="#6D2CF8"/>
</svg>
