<svg width="30" height="30" viewBox="0 0 30 30" fill="none" xmlns="http://www.w3.org/2000/svg">
<path d="M5.625 11.25C2.52338 11.25 0 8.72663 0 5.625C0 2.52338 2.52338 0 5.625 0C8.72663 0 11.25 2.52338 11.25 5.625C11.25 8.72663 8.72663 11.25 5.625 11.25ZM5.625 2.50012C3.90112 2.50012 2.50012 3.90225 2.50012 5.625C2.50012 7.34775 3.90112 8.74988 5.625 8.74988C7.34888 8.74988 8.74988 7.34775 8.74988 5.625C8.74988 3.90225 7.34888 2.50012 5.625 2.50012Z" fill="#FED91F"/>
<path d="M24.375 30C21.2734 30 18.75 27.4766 18.75 24.375C18.75 21.2734 21.2734 18.75 24.375 18.75C27.4766 18.75 30 21.2734 30 24.375C30 27.4766 27.4766 30 24.375 30ZM24.375 21.2501C22.6511 21.2501 21.2501 22.6511 21.2501 24.375C21.2501 26.0989 22.6511 27.4999 24.375 27.4999C26.0989 27.4999 27.4999 26.0989 27.4999 24.375C27.4999 22.6511 26.0989 21.2501 24.375 21.2501Z" fill="#FED91F"/>
<path d="M8.12512 30C3.645 30 0 26.355 0 21.8749C0 17.3951 3.645 13.7501 8.12512 13.7501H13.7501V8.12512C13.7501 3.645 17.3951 0 21.8749 0C26.355 0 30 3.645 30 8.12512C30 12.6052 26.355 16.2502 21.8749 16.2502H16.2499V21.8752C16.2499 26.355 12.6049 30 8.12512 30ZM8.12512 16.2499C5.0235 16.2499 2.50012 18.7733 2.50012 21.8749C2.50012 24.9765 5.0235 27.4999 8.12512 27.4999C11.2267 27.4999 13.7501 24.9765 13.7501 21.8749V16.2499H8.12512ZM16.2499 13.7501H21.8749C24.9765 13.7501 27.4999 11.2267 27.4999 8.12512C27.4999 5.0235 24.9765 2.50012 21.8749 2.50012C18.7733 2.50012 16.2499 5.0235 16.2499 8.12512V13.7501Z" fill="#FED91F"/>
</svg>
