<svg width="33" height="30" viewBox="0 0 33 30" fill="none" xmlns="http://www.w3.org/2000/svg">
<path d="M32.9439 27.4092C32.8708 27.0469 31.1146 18.4907 24.7265 14.8048C24.5294 14.6903 24.3305 14.5815 24.1298 14.4783C24.1436 14.2348 24.152 13.9887 24.152 13.7413C24.152 6.36414 17.6236 0.565586 17.3442 0.322076C17.1062 0.113815 16.8007 -0.000976562 16.4844 -0.000976562C16.1681 -0.000976562 15.8626 0.113815 15.6246 0.322076C15.3465 0.565586 8.81675 6.36479 8.81675 13.7413C8.81675 13.9887 8.82524 14.2348 8.83895 14.4783C8.63875 14.5802 8.43985 14.689 8.24225 14.8048C1.85418 18.4907 0.0980318 27.0469 0.0249133 27.4092C-0.0365921 27.7195 0.0166779 28.0417 0.174822 28.3157C0.332965 28.5897 0.585224 28.797 0.884708 28.899C1.09492 28.9708 4.18614 29.999 8.00788 29.999C10.5298 29.999 13.3703 29.5512 15.9073 28.0849C16.1036 27.9722 16.2953 27.8544 16.4824 27.7317C16.67 27.854 16.8617 27.9717 17.0576 28.0849C19.5972 29.5512 22.437 29.999 24.957 29.999C28.7781 29.999 31.87 28.9708 32.0802 28.899C32.3804 28.7977 32.6335 28.5908 32.7924 28.3167C32.9513 28.0426 33.0052 27.72 32.9439 27.4092ZM16.3277 15.5118C17.9894 15.54 19.643 15.7508 21.2586 16.1405L21.2391 16.2234C20.8812 17.4205 20.4264 18.5864 19.8792 19.7096C18.7746 21.7712 17.367 23.4177 16.4798 24.3513C15.6311 23.4601 14.3065 21.9188 13.2267 19.9818C12.6069 18.7523 12.0985 17.4698 11.7075 16.1496V16.1392C13.2219 15.7713 14.7701 15.5611 16.3277 15.5118ZM16.4844 3.13779C18.0963 4.83518 21.4166 8.87628 21.5368 13.488C19.8185 13.0166 18.0799 12.8684 16.4824 12.8939C14.8869 12.8684 13.149 13.0166 11.432 13.488C11.5522 8.87563 14.8732 4.83322 16.4844 3.13779ZM2.88894 26.7472C3.54178 24.5138 5.36582 19.6495 9.2868 17.2229C9.64541 18.5378 10.1563 19.8064 10.8092 21.0028C11.6396 22.6682 12.7815 24.4564 14.3222 25.9795C10.2759 28.1423 5.15039 27.2917 2.88894 26.7472ZM18.6466 25.9795C20.1873 24.4564 21.3291 22.6682 22.1596 21.0028C22.8124 19.8064 23.3234 18.5378 23.682 17.2229C27.5886 19.6423 29.4185 24.5158 30.0799 26.7498C27.8191 27.2982 22.706 28.1528 18.6466 25.9795Z" fill="#FED91F"/>
</svg>
