<svg width="26" height="30" viewBox="0 0 26 30" fill="none" xmlns="http://www.w3.org/2000/svg">
<path d="M25.1719 6.38679C23.8862 4.55571 21.1004 4.45821 17.8862 5.39464C16.804 2.22321 15.1262 0 12.8912 0C10.6562 0 8.9783 2.22321 7.89508 5.39679C4.6808 4.46143 1.89508 4.55893 0.609369 6.38679C-0.89706 8.53714 0.537583 11.82 3.28901 15C0.537583 18.18 -0.89706 21.4629 0.61044 23.6132C1.05197 24.1634 1.62288 24.5957 2.27219 24.8714C2.9215 25.1472 3.629 25.2579 4.33151 25.1936C5.54074 25.1596 6.73951 24.9591 7.89401 24.5979C8.97616 27.7736 10.6551 30 12.8912 30C15.1272 30 16.8062 27.7736 17.8894 24.5979C19.0431 24.9591 20.2412 25.1596 21.4497 25.1936C22.1524 25.2578 22.86 25.1471 23.5095 24.8713C24.1589 24.5956 24.73 24.1633 25.1719 23.6132C26.6794 21.4629 25.2447 18.18 22.4933 15C25.2447 11.82 26.6794 8.53714 25.1719 6.38679ZM21.4219 6.94286C21.7843 6.89474 22.1529 6.93048 22.4994 7.04732C22.8458 7.16417 23.1608 7.35899 23.4201 7.61679C24.0629 8.53393 23.2958 10.7764 21.0351 13.4475C20.4447 12.8636 19.819 12.2925 19.1654 11.7332C19.0368 10.2856 18.8062 8.84879 18.4754 7.43357C19.4304 7.13878 20.4207 6.97373 21.4197 6.94286H21.4219ZM16.5822 20.2639C16.6551 20.2125 16.7247 20.1568 16.7965 20.1075C16.7001 20.7268 16.5822 21.3107 16.4601 21.8625C16.0133 21.6814 15.5579 21.4843 15.0833 21.2582C15.5912 20.9379 16.0926 20.6068 16.5822 20.2639ZM15.3554 18.5089C14.5144 19.0993 13.6926 19.6232 12.8912 20.0893C12.0929 19.6232 11.2712 19.0993 10.4269 18.5089C9.8033 18.0707 9.22687 17.6314 8.67401 17.1911C8.63437 16.4871 8.60544 15.7618 8.60544 15C8.60544 14.2382 8.63437 13.5129 8.67723 12.8089C9.23008 12.3686 9.80651 11.9293 10.4301 11.4911C11.2787 10.8964 12.0994 10.3864 12.904 9.91714C13.6979 10.3821 14.5112 10.9039 15.3522 11.4911C15.9758 11.9293 16.5522 12.3686 17.1051 12.8089C17.1479 13.5129 17.1769 14.2371 17.1769 15C17.1769 15.7629 17.1479 16.4871 17.1051 17.1911C16.5522 17.6314 15.9758 18.0707 15.3554 18.5089ZM10.699 21.2571C10.2244 21.4843 9.76901 21.6804 9.32222 21.8625C9.1958 21.3107 9.08222 20.7268 8.9858 20.1075C9.05758 20.1589 9.12723 20.2146 9.20008 20.2639C9.68973 20.6068 10.1912 20.9379 10.699 21.2571ZM6.46794 15.2646C6.3758 15.1757 6.28151 15.0879 6.19365 15C6.28151 14.9121 6.3758 14.8232 6.46794 14.7354C6.46794 14.8232 6.46258 14.9121 6.46258 15C6.46258 15.0879 6.46258 15.1768 6.46794 15.2646ZM8.9858 9.8925C9.08222 9.27321 9.20008 8.68929 9.32222 8.1375C9.77008 8.31964 10.2276 8.51571 10.7044 8.74393C10.1944 9.06536 9.68973 9.39214 9.20437 9.73607C9.12723 9.7875 9.05758 9.84107 8.9858 9.8925ZM15.0844 8.74821C15.5579 8.52214 16.0154 8.31964 16.4612 8.14071C16.5865 8.69143 16.7001 9.27429 16.7965 9.8925C16.7247 9.84107 16.6551 9.78536 16.5822 9.73607C16.0937 9.39429 15.5922 9.0675 15.0844 8.74821ZM19.3197 14.7354C19.4119 14.8232 19.5062 14.9121 19.5951 15C19.5062 15.0879 19.4119 15.1768 19.3197 15.2646C19.3197 15.1768 19.3197 15.0879 19.3197 15C19.3197 14.9121 19.3197 14.8232 19.3197 14.7354ZM12.8912 2.14286C13.8501 2.14286 15.0083 3.55821 15.8804 6.08571C14.8593 6.49379 13.8614 6.95771 12.8912 7.47536C11.9213 6.95679 10.9237 6.49181 9.90294 6.0825C10.774 3.55821 11.9322 2.14286 12.8912 2.14286ZM2.36437 7.61679C2.91615 6.8325 4.73973 6.69643 7.31008 7.43357C6.9789 8.8502 6.74797 10.2884 6.61901 11.7375C5.96544 12.2925 5.33973 12.8636 4.74937 13.4518C2.48865 10.7764 1.72151 8.53393 2.36437 7.61679ZM2.36437 22.3832C1.72151 21.4661 2.48865 19.2236 4.74937 16.5525C5.33973 17.1364 5.96544 17.7075 6.61901 18.2668C6.74788 19.7155 6.97881 21.1534 7.31008 22.5696C4.73866 23.3036 2.91508 23.1675 2.36437 22.3832ZM12.8912 27.8571C11.9322 27.8571 10.7729 26.4407 9.9008 23.9111C10.9224 23.5017 11.9207 23.0364 12.8912 22.5171C13.8616 23.036 14.8599 23.501 15.8815 23.91C15.0094 26.4407 13.8554 27.8571 12.8912 27.8571ZM23.4179 22.3832C22.8683 23.1686 21.0437 23.3046 18.4722 22.5664C18.8034 21.1498 19.0343 19.7116 19.1633 18.2625C19.8169 17.7075 20.4426 17.1364 21.0329 16.5482C23.2937 19.2236 24.0608 21.4661 23.4179 22.3832Z" fill="#FED91F"/>
</svg>
