<?xml version="1.0" encoding="UTF-8"?><svg id="Layer_1" xmlns="http://www.w3.org/2000/svg" viewBox="0 0 500 500"><defs><style>.cls-1{fill:#fe900b;}</style></defs><path class="cls-1" d="M366.28,141.17l1.24-.62c.65,1.23-.18,2.15-.23,3.01-.02.34.37.64.37.88-.02,1.38-.34,3.47-1.47,4.39-.58.48-1.51.52-2.06.89-.85.58-3.26,2.87-4.18,3.74-.48.46-1.39.19-1.12,1.99-1.28-.7-1.75.39-2.37.53-.23.05-.68-.26-.72-.22-.06.07-.48,1.57-.71,1.76-.79.68-3.05.53-2.09,2.89-1.71-.1-1.38.95-1.6,1.18-.13.14-1.18.09-1.81.54-.69.49-.78,1.48-1.01,1.64-.33.23-2.26.38-2.65.78-.09.09-.85,1.69-1.04,1.89-.91.95-2.66,2.5-3.71,3.44-.39.35-1.22.45-1.56.92-.38.52-.17,1.31-.76,1.73l-2.63-1.86c-.42,1.4.83.67.95,1.1l-.07,1.66c-1.17-.18-.72.67-1.37,1.24-.8.69-2.26.35-2.9,1.52-.24.44-.15,1.14-.43,1.53-.38.53-2.56,1.61-3.33,1.33v1.24s-1.09-.61-1.09-.61c-.14,0-.96,2.09-1.19,2.37s-.79.5-1.15.86-.68,1.13-.92,1.28c-.44.27-1.34-.36-1.55-.18-.06.06-.12,1.19-.33,1.62-.82,1.65-3.39,1.34-4.53,2.8-.14.18-.11,1.39-.16,1.44-.63.65-2.04-.36-2.11-.27-.05.05.09.55-.1.82-.35.5-2.57,3.59-2.77,3.76-.33.3-2.13.57-2.68,1.19-1,1.12-.86,2.29-3.14,2.31l.28.88c-.71.16-.98.56-.91,1.3l-.93-.32c.08,1.45-1.52,1.82-2.49,2.64-.48.4-.74,1.08-1.03,1.3-.19.14-2.53,1.49-2.68,1.53-.41.1-.91-.71-1.23-.47-.1.07-.21,1.04-.95.92l.93.62c-.5.96-.65,1.39-1.83,1.29l-.09.82-.87.07c.52.71-.1.49-.28.86-.58,1.19.32,1.39-1.89,1.01l-.02.9-1.23.03.15,1.26c-1.11.62-1.58.62-1.72,2.15l-.91-.17-.66,1.1-.9-.31c.23,1.45-1.03,1.25-1.45,1.66-1.14,1.08-2.06,1.95-3.31,2.91-.54.42-1.09-.52-.64,1.35-.93.05-1.16.89-1.63,1.16s-1.33.22-1.59.44c-.35.31-.19,1.69-1.65,2.26-.79.31-1.51-.51-2.01,1.07-.39,1.24.46,1.81-1.38,1.56l-.02,1.22-3.07.66c.22,1.2-.74,2.38-1.61,3.19-1.46,1.36-7.94,5.1-8.6,6.16-.14.23.44,1.12-1.14,2.46-2.65,2.23-4.59,3.96-6.9,6.61-.14.16-.03.59-.15.74-.3.4-1.37.03-1.88.37-.46.29-.74,1.41-1.31,1.89-1.93,1.64-1.38.68-3.05,3.01-.79,1.1-2.49,1.19-3.13,1.62-.1.07-.8,1.66-.99,1.87-.2.22-2.18,1.76-2.57,2.08-.66.53-2.76,1.94-3.03,2.27-.09.11.23.93-.9,1.88-1.48,1.24-1.74.57-3.06.71-1.92.2-.56,2.5-2.06,2.86l.62.46c-1.35.19-2.08,2.37-2.62,2.84-.31.27-.83-.11-1.27.24-.87.7-1.65,2.38-2.31,3.03-.84.84-3.54,2.37-4.52,3.21-.79.68-1.03,2.4-2.48,1.61l-.19.85-.85.05c.01.78-.19,1.96-.82,2.47-.48.39-.97-.18-1.39.12-.23.16-1.11,2.18-1.24,2.67-2.08-1.65-2.53,2.17-3.19,3.02-.43.55-3.77,1.15-4.57,1.64.11.52,1.3.2,1.23,1.08-.03.38-1.01.36-1.18.54-.41.45.68,1.29-1.61.54l.23.55c-.42.37-1.77,1.22-1.93,1.6s.34,1.32.13,1.56c-.05.06-.56-.08-.81.1-2.71,2.04-2.6,1.66-4.62,4.55-1.14,1.63-1.73,1.25-3.05,1.59-.11.03-.83,1.16-2.06.6l.93.31c.09,1.73-1.43,1.54-1.86,2.39-.28.55-.19,1.2-.4,1.56-.18.29-1.36.73-1.69,1.12-.16.19-.02.7-.11.78-.23.2-1.04-.13-1.47.11-.14.08-1.97,2.29-1.3,2.73l-.93-.31c-.09,1.13-.48,1.55-1.66,1.25-.23-.06-.19-.41-.21-.42-.54-.3-1.25.51-1.25.6,0,.63,1.08,1.39.49,2.31-.51.8-3.18,1.28-3.52,1.61-.24.24-.26.99-.57,1.46-.66.97-1.86,1.11-2.55,2.46-.16.31-.8,1.43-.66,1.6.56-.53,1.82-.79,2.28-1.23.27-.26.14-.68.42-.96,1.08-1.07,2.99-.6,3.98-2.18.44-.7-.35-.34,1.09-1.69.69-.64.52-1.45,2.17-1.09l-.31-.61c.77-.28,2.2-.27,2.18-1.25l.61.62c.15-1.55,1.44-1.74,2.15-2.36.58-.5.78-1.49,1.77-1.59.72-.08,1.19.76,1.53-.41l1.07.33.32-2.8c2.19.99,1.85-1.42,3.43-2.01.99-.37,1.1.06,1.71.1.07,0,.34-.92,1.07-.58v-.62s-.62-.15-.62-.15c.45-.06.94-1,1-1.03.14-.07,1.92.02,2.05-.13.24-.28.22-1.02.54-1.46.25-.34.79-.46,1.06-.8.31-.38.9-1.6.98-1.65.07-.05.56.21.89.12,1.3-.39,2.38-.77,2.17-2.35l1.24.31c.13-.15-.68-1.2.16-1.55.72-.3.21.75.77.62.05-2.21,1.35-1.13,2.02-1.29.15-.04.14-.39.23-.43.18-.1.47.09.68-.13.41-.44,1.07-2.26,1.5-2.41.3-.11.66.15.87.06,1.47-.61,2.53-2.71,3.4-3.09.98-.44,1.78.38,1.86-1.4l.93.32v-.94s1.55.62,1.55.62l-.62-1.39c1.27-.19,1.15-1.28,1.54-1.59.28-.23,1.77.45,2.9-.73.41-.43.23-1.23,1.13-1.43.46-.1,1.97.9,2.82.48l-.93-.92c.92.16.46-.76.71-1.15.6-.92,2-1.09,2.32-1.41s.25-1.25.83-1.81c.68-.67,2.36-.74,2.59-1,1.96-2.13,4.03-2.84,6.43-4.57.78-.56,1.9-1.52,2.72-2.18.49-.39-.12-1.06,1-.08.43-.46,1.36-.68,1.73-1.01.49-.45-.05-1,0-1.07.08-.11,1.99-.89,2.33-1.23.64-.65.97-1.29,1.08-2.2l.31.62h.61c-.02-.87,2.09-1.94,1.87-.62h.3c-.1-.59,1.51-2.44,1.87-2.65s.84.19.91.15c.15-.1,1.43-3.41,2.2-1.22h.3c-.17-1.83,1.76-1.53,1.56-2.79l.9.28.33-.76,1.56.17v-.94s1.56.62,1.56.62c-.42-.19.33-1.37.53-1.56,1.01-.96,2.71-1.54,3.7-2.29,1.45-1.09,2.33-2.86,3.6-4.14l1.79.54v-1.86s1.55.31,1.55.31v-1.55s.56.22.56.22l.23-.55,1.39.51c.61-.29,1.09-2.09,1.65-2.56.81-.66,3.08-1.18,4-1.68.85-.47.7-1.83,2.11-.9l-.31-.93c.99.25.93-.63,1.69-.98,1.97-.9.73-.47,1.82-1.42.72-.64,2.09-.88,2.65-1.1.12-.05,1.15-1.68,2.23-1.16l-.31-1.55c1.75.69,1.83-.3,2.72-.94.79-.58,3.16-2.35,3.81-2.62.52-.21,1.01-.19,1.54-.17l.18-.92c3.84,1.26,2.59-5.11,6.96-3.42-.33-1.94,1.74-2.04,2.79-2.66.46-.27.48-.79.72-.97.92-.71,2.21-.57,3.32-.72.26.25-.57,2.21.62,1.86-.5-2.2.37-3.44,1.54-5.14l1.25.17c.39-1.93,2.15-2.51,4-2.53l.99-1.8.62.15-.31,1.39c.32.39,2.67-2.89,2.8-3.41l.62.16v1.08s2.76-.97,2.76-.97c-.07-.81.21-2.5.97-2.92.46-.25.98-.04,1.33-.17.17-.06,2.55-1.28,2.87-1.53.31-.24,1.19-1.64,1.47-1.78,1.58-.82.9.61,2.46-1.57.22-.3,2.35-.12,2.45-.2.33-.25.22-1.01.47-1.41.46-.74,1.86-1.12,2.59-1.44.66-.29.67-1.07,1.89-.44-.06-2.56,3-2.6,4.73-3.73,1.29-.84,1.57-.88,2.82-1.55.56-.3,1.99-2.01,2.52-2.21.47-.17.66-.07,1.11.03l-.3-.91,1.7-.6.77.58v-1.25c.9-.14,1.02.92,1.55.62.02-.01-.02-.33.13-.47.6-.57,2.32-2.59,2.75-2.86.22-.14.57-.06.84-.08l-.58-.34.28-.9c1.1-.25.33.8.77,1.24,1-.73,1.8-.62,1.71-2.17l1.55.62c-.03-.71-.02-1.27.61-1.67.57-.36,1.27.4,1.22-.97,1.06-.32,2.42-.62,3.44-.15l-.16-.93c.34-.57,1.02.06,1.08,0,.09-.09.39-1.84,1.1-2.16l.31.63h.77s.79-2.18.79-2.18l1.56.61c.12-1.22,1.82-.66,2-.92.03-.05-.48-.63-.04-1.11,1.82-.78,3.62-3.47,5.62-1.69.1-.07.74-1.94.98-2.3.36-.54,3.71-2.85,4.21-2.93.61-.09,1.3.38,1.95.25l-.31-1.24,1.55.62-.93-1.24c1.22.19,4.07-3.42,4.35-1.56h.3s1.25-2.17,1.25-2.17l.88.29c.36-1.1,2.46-1.37,3.47-2.04.52-.34.58-1.05,1.35-1.37.62-.26,1.4-.2,1.67-.36.26-.15.45-1.23.92-1.51s2.31-.44,2.88-.29l-.62-.62,3.07.29c.26-1.18.81-2.32,1.74-3.09.62,1.74,1.36-1.41,1.46-1.49.1-.08,1.79-.56,2.39-.87.71-.37,1-1.37,2.21-1.05l-.31-1.24c.67.35,1.49.34,2.2.12,1.05-.33,1.47-1.14,2.45-1.36v.93c1.51-.44,2.27-.58,3.81.02.34.13.13,1.1,1.47.29v1.54s.93.02.93.02c-.75,1.51-.14,2.54-.46,4.04l-.94-.31c-.37.01-.63,1.81-1.07,2.27-.24.25-1.74,1.83-1.87,1.9-.71.39-1.47.79-2.32,1.3-.96.57-.51-.37-.8,1.22-1.1-.02-1.18-.35-1.73.78l-1.06-.33v1.25s-1.24.31-1.24.31l-.31-2.17-.62,2.65c-1.01.66-2.12-.17-2.96,1.08l-.77-.93v1.24c-1.11.31-.63-.61-1.4-.62l-.77,2.97c-1.19-.42-.82.24-1.45.7-.97.71-2.2,1.31-3.11,2.02-.37.29-.46.96-1.06,1.29-.8.43-2.1-.92-2.64.79l-1.06-.33-.29,1.12c-1.62-.21-.95.05-1.49.43-1.28.9-3.2,1.77-3.91,3.12-.11.21.11.57.08.59-.49.32-2.45.32-3.08.02l-.07.86c-1.46-.2-1.28,1.95-1.53,2.2-.11.12-1.04.08-1.45.25-.44.18-.34,1.16-.97.7-.07-.05-.32-1.12-1.39-.86-.89,1.24-2.32,2.05-3.82,2.4-3-2.44-.73.51-1.02,1.68-.05.19-.93.38-.62,1.15-1.36-.6.07-2.29-1.55-1.86l-.31,2.8-.79-.28c-.2.92-1.49.32-2.28.29l-.86,1.51-1.65-.28c.65,1.05-1.66,2.71-2.65,3.08l-.76-.9-.63,2.79c-1.68-.76-1.36.11-1.96.52-1.47,1.01-1.78-.9-1.92-.83l-1.29,3.13-1.97-.34-.59,1.72-1.59.14v1.23c-1.24-.11-1.5.34-2.06,1.28l-2.28-.65c.2.58-.82,2.1-1.24,2.32-.28.15-.63-.19-.86-.08-.1.04-.06.57-.68.73-.32.09-.8-.17-.9-.11-.2.12-.88,1.69-1.48,2.07-1.03.65-1.67,0-1.94.09-.1.03-.95,1.38-1.32,1.62-.86.56-1.84.16-2.3,1.42l-1.08-.92c-.14,1.13-1.96.99-1.25,2.48-1.41-.09-2.73.15-2.49,1.87-.18.19-1.78-.65-2.59.28-.36.42-.13.95-.35,1.26-.21.29-.77.28-1.06.52-.71.59-1.31,1.42-2.52,1.35.14-.6-.42-1.27-.93-1.55-.41,1.11-.55,1.93-.31,3.1l-1.6.45.04,1.1-2.41-.56-2.27,2.41-1.22-.6c.04.64-.64.63-.81,1.21-.13.44-.07,1.47-.16,1.56-.14.15-3.44.6-4.01.34l.62,1.24c-1.34.3-3.45.35-2.8,2.18-1.29-.77-1.49.56-1.95.84-.7.43-2.43.33-2.71,1.95-2.15-2.63-1.47.73-2.49,1.69-.17.16-3.19,2.16-3.39,2.21-.52.13-.99-.29-1.56-.04-1.33.59-2.57,3.32-2.81,3.44-.32.16-1.03-.14-1.71.11-1.32.49-1.97,2.27-3.56,1.59l.31.62c-1.91-.12-1.32.89-1.87,1.64-.69.94-1.82,1.12-2.64,1.77s-.7,1.98-2.63.94l.18.95c-1.05.51-4.13,1.43-3.29,2.78l-2.17-.62.31.93c-.71-.1-2.14.42-2.59.91-.31.34-.14.78-.24.9-.04.06-.45-.17-.58-.07-.52.38-.85,1.3-.98,1.94l-1.01.05-.2-.62h-.61c0,2.76-2.19,1.61-2.8,1.98-.72.45-.77,2.81-3.11,1.87-.29,2.09-.5,1.33-1.35,2.08-.3.26-1.12,1.41-1.21,1.44-1.02.36-.97.51-1.61.76-.53.21-1.31-.05-1.37,0-.1.07-1.52,1.27-1.76,1.48-.38.34-1.57,2.03-1.9,2.13-.61.19-1.48-.13-1.92.12-.2.11-2.63,3.08-2.55,3.66-1.93-.3-.52-2.74-2.48-2.48l.31,3.41-2.18.32.62.77c-.52.92-1.39-.38-1.24.77l-1.24-.93.27.79c-1.24.54.21,1.68-1.78,1.42l-.36,1.52c-.18.16-1.58-.59-2.3-.03-.32.26-.1.76-.22.92-.04.06-.5-.21-.61-.11-.33.29-.19.9-.34,1.03s-1.05.03-1.51.2c-1.89.67-3.42,2.84-4.81,4.2l-.46-.62-.35.57-.55-.23c-.03,1.39-1.71,1.76-.96,2.76l-3.11.63.27.57c-.74.34-1.99.78-2.54,1.26-.86.73.15.35-1.43,1.13-1.44.71-2.25,2.17-3.02,2.61-.57.32-.94-.03-1.27.09-.08.03-.59.95-.8,1.05-.54.28-1.15.11-1.75.59-.53.42-.59,1.62-1.56,1.08l.31,1.55c-1,.24-.3-.81-1.08-.62-.29.92-1.07.84-1.53,1.25-.51.46-2.73,3.16-3.04,3.34-.36.21-1.35.01-2.04.28-.3.11-4.65,3.59-5.04,3.97-.7.7-.88,1.25-1.4,2.02l-1.7-1.24-.05.88-.89.05c.78,1.34-1.58,2.12-1.91,3.37l-2.12-.27c.65,1.11-1.8,3.79-1.86,1.78l-.62-.22c.65,1.11-.42,1.28-.93,2.02-1.63,2.35-1.03,1.47-3.51,2.71-.4.2-.63,1.15-1.4.76-.14-.07.14-.66-.36-.52-.15.39.02,1.48-.07,1.7-.03.06-.86,1.02-.92,1.05-.29.16-.06-.4-1.11.34-1.85,1.3-3.55,2.56-5.92,2.86-.37,1.73-1.02,2.63-2.39,3.67l-.77-.62c-.15,2.42-4.31,2.47-4.04,4.96l-.47-.64c-1.49,0-1.62,1.29-2.12,1.77-1.72,1.65-3.85,3.07-6.02,3.97-.11.05-.07.97-1.32.18.68,2.92-1.72,1.98-2.92,2.77-.29.19-1.34,2.69-1.44,2.81-.1.11-.67-.27-.93-.15-.36.16-.53.91-.95,1.21-1.29.92-2.93.93-4,2.19-.37.44-.38,1.07-.91,1.58-.64.63-1.35.53-1.79.85-1.01.74-1.57,2.85-3.82,2.4.57,1.4-.59,1.18-1.22,1.71-.5.43-1.1,1.25-1.57,1.52-.64.35-1.17-.57-2.31,1.14-.89,1.33,0,1.04-1.81,2.16-.18.11-.23.5-.29.53-.15.06-.5-.22-.85-.08-.57.23-.71,1.27-1.88.47.71,1.73-.85,1.66-1.78,2.57-.3.29-.25.94-.46,1.09-.23.16-.82.03-1.17.21-.76.4-.26,1.49-1.83.81l-1.18,2.12-1.34-.29c0,1.82-2.49,3.39-4.04,2.8l.29.9c-.73.02-1.07.87-1.52,1.08-.18.08-3.57,1.02-3.83,1.03-1.02.05-3.25-.13-2.39-1.47-1.21.59-4.49-.27-2.47-1.4l-.63-1.71.74.26.49-.45c-.96-2.04.42-1.96.59-2.49.15-.47-.04-1.02.14-1.59.03-.1,1.36-1.03,1.6-1.32.39-.49,1.07-2.1,1.47-2.41.88-.69,4.29-4.08,4.82-5.02.44-.79.66-1.67,1.62-1.87l.64.92c.09-1.61,2.04-4.34,3.63-4.54.24-.03.68.23.7.19.06-.08-.07-.46.05-.65.55-.9.53-.59,1.09-.98,1.32-.92.64-1.25.93-1.99.12-.32,1.95-2.02,2.13-2.88l.49,1.22h1.22s-.31-.91-.31-.91c2.05-.06,1.08-3.03,2.26-4.27.31-.33.99-.21,1.38-.49.57-.4,1.99-2.85,2.91-3.43,1.5-.96.97-.41,2.24-1.66.18-.18.86-.07,1.03-.72l2.29.63c.18-1.07-.12-1.74-.62-2.63l.88-.52-.26-.56c1.39.14.95-.75,1.05-.86,1.26-1.5,1.32-1.27,2.6-2.01.26-.15,1.05-2.06,1.48-2.41.54-.45,2.41-1.19,3.08-1.86l1.11-2.49.31,1.24,2.48-.32v-.9c-2.83-.61-.46-1.36.02-2.02.35-.48.21-1.26.6-1.59.08-.07,1.57-.06,2.09-.53.74-.68-.38-1.47,1.95-1l.25-.35c-.8-1.48.99-1.89,1.21-2.38.4-.91-.53-1.28,1.29-1.2.04-1.24,1.16-1.57,2.22-1.82l-.32-.92c2.13-.04,1.47-2.23,4.02-1.88l.16-1.57c1.7-.08,2.41-2.89,3.42-3.73.26-.22.69.02.74-.02.28-.27.23-1.27.39-1.47.02-.02.39.16.61.09,1.88-.6.98-1.01,1.7-1.96.32-.42.96-.47,1.36-.81.93-.79,1.13-1.56,2.81-1.06.18-1.99.82-3.7,3.08-3.76l.06-1.17,1.53-.03c-.22-.38.13-1.42.31-1.64.3-.38.78-.13.89-.25.24-.26-.35-1.38.98-1.52l-.3,1.86.91-.34c-.22-.86-.06-1.71.52-2.42.83-1,2.82-1.82,2.88-3,1.7.14,1.61-.74,2.55-1.49.44-.35,1.32-.5,1.62-.8.52-.52.22-2.23.82-2.67.28-.2.93-.16,1.41-.45.66-.4,1.01-1.38,1.54-1.89.45-.43,2.75-2.79,2.97-2.93.35-.23.91.12,1.31-.13,1.37-.85,2.28-2.83,3.55-3.77.33-.24,1-.19,1.35-.45s-.11-.83.25-1.25c.47-.56,1.66-.57,1.85-.82.43-.59-.24-2.32,1.62-1.95l.03-.75c.7-.16,1.41-.09,1.57-.9l.54.23c-.1-1.14,1.27-1.1.64-1.84,1.76-.06,2.27-2.73,3.43-3.88,1.44-1.45,4.07-2.62,5.91-4.74.36-.41-.02-1.3,1.23-1.02l-.31-.6c.99.17,1.3-.8,1.87-1.1,1.11-.58,1.21.53,1.23-1.71l1.08,1.24c.76-.51.25-1.63.61-2.19.31-.48,1.5-.37,1.94-.7.27-.2.55-1.07.88-1.45.98-1.14,1.98-1.95,2.96-2.94.28-.28.03-1.43.74-1.72l1.21.64c1.63-1.83,3.46-5.46,6.4-4.68-1.37-2.31,1.58-2.37,1.55-4.03,1.08-.12,1.02,1.06,2.48.62.11-.08-.93-.83-.54-1.79.06-.16,2.26-2.02,2.6-2.19.98-.49,1.87,0,1.69-1.24,1.47.11,1.67-2.05,2.78-2.99.61-.52,2.89-1.35,3.02-1.48.22-.22.12-.97.47-1.4.27-.33,1.28-.55,1.4-.77.19-.33-.05-1.01.08-1.15.06-.07.91.01,1.4-.31s1.54-1.98,2.14-2.52c.74-.67,2.57-1.68,3.28-2.33.27-.25,0-.84.46-1.07l.15.93h.61c.04-.27.11-.59.31-.78,1.23-1.2,1.56-2.37,2.96-3.58.28-.24.65.08.79-.15.34-.56.45-1.29-.17-1.69-.16.99-1.05.43-1.35.66-.13.09-.31,1.47-.36,1.83l-1.67-.6c-.43.07-1.35,2.02-2.36,2.31-.49.14-1.05-.64-1.68-.18-.03.74-1.21,2.38-1.82,2.63s-1.26-.08-1.48.05c-.63.36-.65,1.55-.79,1.72-.22.28-.69.05-.92.27-.62.6-1.18,1.92-2.16,1.9-.33,0,.07-.77-.47-.63l-.78,1.86c-.36-.24.53-1.44-.31-1.54-.94-.12-1.43,2.51-1.77,2.73s-1.65.05-2.21.36c-.39.22-.19.99-.68,1.25l-.77-.62c-.3,1.72-2.57,2.49-3.67,3.92-.42.55-.61,1.5-.72,1.62-.08.1-2.21.35-2.43.5-.47.31-.42,1.1-.7,1.33-.31.26-1.54.29-2.01.65l-1.02-.89.17,1.55c-1.32.4-.91.9-1.55,1.57-.44.46-1.34.56-1.81.91-.4.29-2.07,1.97-2.46,2.11-.27.09-.77-.41-1.14-.21-.21.11-1.14,2.18-1.36,2.38-.58.54-1.81-.08-1.48,1.32l-.61-.32v.94s-1.84-.28-1.84-.28l-.71,2.39-2.26.37.15.62-.93-.62c.44,1.81-1.24,1.44-2.15,2.04-.17.11-1.36,1.05-1.57,1.22-.47.39-.19,1.13-.61,1.55-.17.17-2.27.6-2.5-.15-.3.15-1.11,2.18-1.24,2.33-.45.54-1.36.74-1.67,1.06s-.14.81-.24.9c-.17.15-1.07.02-1.54.18-.76.26-.74.85-.98,1.02-.11.08-2.23.67-2.37.76-.18.12-.25,1.07-.54,1.49-.1.14-2.28,2.11-2.59,2.37-.9.75-2.07.55-2.44.82-.1.07-1.02,1.18-1.58,1.69-.3.27-1.25,1.53-1.35,1.58-.95.51-2.52-.57-2.42,2.26l-1.51-.29c-.13.32-.2.7-.49.93-.52.41-2.43,1.38-2.8,1.86-.3.4-.27,1.24-.55,1.47-.13.11-2.91,1-3.21,1.02-1.19.08-.37-.84-1.38-.64l.22.79c-1.41.5-.54,2.32-1.47,3.08-.53.43-2.09.53-2.95,1.09-.52.34-2.8,2.48-3.26,3.03-.2.24-.17.8-.37.95-.32.24-2.78.65-3.37.53-.49.28-.9,2.59-1.62,3.17-.57.46-1.61.33-2.18.69-.79.49-1.57,2.61-2.99,2.21l-.34,2.15-1.08-1.24c-.32,1.19-1.87,1.52-2.26,1.93-.31.34-.21,1.01-.48,1.39-.42.59-1.52.46-1.89.73s-.44.77-.57.86c-.19.13-.68-.3-1.04,0-.54.46-.34,1.43-.75,1.78-.2.17-.72-.15-1.11.1-.49.32-2.38,2.88-2.71,3.06-.27.15-.72,0-.91.09-.6.31-.63,1.18-2.11.29l-.02,1.84c-1.58-.35-1.61,1.43-2.22,1.83-.16.11-.68-.22-1.25.04-.27.12-.96,1.29-1.15,1.39-1.08.57-.78.16-2.12,1.39-.76.7-2.05.93-1.93,2.19l-.61-.62c-.45.41-.9,2.04-.99,2.12-.23.21-1.78.14-2.33.46-.65.38-1.34,1.95-1.65,2.22-.81.7-3.19.81-2.79,2.96-.43-.28-1.17-.02-1.4-.07s-.08-.83-.93-.55c-.66,1.51-1.35,2.99-3.26,2.79l.31-1.24h-.93c1.01,1.55-.4,2.36-.9,3.35-.19.38-.09,1.32-.41,1.55-.46.35-1.93.02-2.04.11-.49.35-.5,1.71-2.24,1.2l.32.62h-.93c.88,2.72-2.27,2.29-3.42,3.26-.5.42-.32,1.58-.67,1.95-.08.09-1.66.3-2.29.67-1.29.76-.77,1.7-2.62.95l.62,1.08c-.72.38-1.21.56-1.75,1.23-.14.18-.06.63-.17.72-.26.21-1.13.05-1.64.4-.46.32-.32.89-.72,1.22s-1.67.62-2.23.64l-.02,1.23c-2.9-.36-1.44,1.47-2.64,2.79l-.31-.63c-.73-.14-2.45,2.17-3.19,2.81-1.39,1.2-3.16,2.35-4.43,3.55-1.05.99-1.11,2.13-2.78,1.73.32.88-.49,2.13-1.52,1.56l-.81,1.52-.62-.52c-.47,1-2.08.72-2.29.89-.14.11-.44,2.31-1.64,2.99-.13.07-.51-.3-1.04.04-1.06.69-2.27,4.41-4.49,3.45v1.25s-1.26-.18-1.26-.18c-.98,1.99-3.14,3.48-4.91,4.73-.23.16-.29.57-.43.65-.75.42-1.42-.43-1.5,1.61-1.04.04-.82-.36-1.52-.91-.03.65-.1,1.67-.48,2.19-.17.23-.49.02-.69.13-1.01.52-2.41,3.17-3.65,3.92-.5.3-.99.01-1.26.24-.64.53-.31,1.33-.45,1.59-.02.04-.43-.29-1.02.02-1.01.54-1.44,1.5-2.08,1.98-1.75,1.3-3.9,2.91-5.6,4.05-.41.28-1.97-.21-1.87,1.69l-.6-.3-.02.91c-2.53-.49-2.11,2.03-2.95,3.11-1.4,1.8-3.36,1.56-4.69,2.92-.62.63-.99,1.92-1.71,2.62-.3.1-1.29-.5-1.67-.52-.13,0-.13.47-.38.57-1.21.51-2.61-.58-3.95-.59-1.35-1.75.17-2.12.34-2.79.23-.88-.22-1.89.44-2.88.37-.56,1.19-.64,1.66-1.22.55-.67.69-1.87,1.1-2.63l1.57.19c-.12-1.63,2.14-1.08,1.87-3.11l.93.32.94-1.86.77.57c1.3-.74,2.09-2.32,3.57-1.5.01-.67,0-2.23.39-2.71.29-.35,1.37-.42,1.71-.78,1.35-1.42,2.38-2.46,3.65-3.62.53-.49.84-1.45,1.55-1.89l.46,1.55.3-1.97.9-.22.07-1.18c.71-.04,2.28-.85,2.67-1.36.51-.66.87-3,2.24-2.11l.32-.59.62.93c-.37-1.31.48-1.16.89-1.74.93-1.33,2.09-2.22,2.54-3.54l1.1.28c.42-.77,1.33-.38,1.41-1.8l.59.29c-.28-1.2.58-.8,1.07-1.25.41-.37.5-1.06.9-1.44.9-.86,3.12-1.29,3.54-1.73.27-.29.2-.9.47-1.1.34-.24,1.1.28.85-1l.94.19.34-1.08,1.2-.04v-1.23c2.25.29,1.75-1.17,2.58-2.09.66-.74,2.09-.73,2.61-1.11.38-.28.76-1.59,1.48-2.1.41-.29,1.08-.07,1.33-.35.33-.37.25-1.38.69-1.68.33-.23.86.09,1.26-.02.7-.18.86-.87,1.26-1.17.64-.48,1.02.36.72-1.11.31-.61,2.48-.88,1.73-1.86l.95.15c.58-.26.47-1.12.65-1.34.05-.06.44.22.71-.05,1.12-1.12,2.81-3.34,4.52-3.12l-.31-.93c1.27.28,1.83-1.62,2.27-2.08.26-.28,1.54-.47,1.98-.82.8-.63,2.79-1.84,3-2.05.29-.29.12-.76.4-.98.58-.44,1.38.17,1.05-1.52l1.21.34c.12.17-.19,1.25.49.9.72-.38.53-2,.78-2.58.07-.17,1.27-.47,1.46-.92.17-.4.04-1.08.1-1.14.12-.12,1.39.34,2.18-.78.2-.28.04-.83.27-.94.5-.25,1.15-.01,1.52-.21.18-.1,1.26-1.97,1.94-2.26.44-.19.88.28,1.4-.11.42-.31,1.49-3.15,2-2.83l.62.62-.31-.93c2.36-.27,2.71-4.8,5.59-2.17-.27-1.27.56-.77.84-1.01.07-.06.95-1.54.95-1.63,0-.28-.77-.55-.55-1.09,1.61.2,2.94-2.03,4.03-2.99.49-.43,1.05.09.94-.73l.62.15-.32.77h.93s-.3-1.54-.3-1.54c.92-.3,2.45-.5,2.99-1.35.2-.32.08-.84.26-1.17s.99.29.78-.59l.31.93h.93s0-1.85,0-1.85h1.23s-.3-.91-.3-.91c1.43-.14.85-1.21.93-1.26.14-.09,1.39-.2,2.08-.55.45-.23,1.01-1.26,1.25-1.32.38-.09,1.18.1,1.31-.03.07-.06-.02-.67.11-.96.79-1.88.98-.68,1.88-1.17.37-.2.01-.79.4-.96s2.17-.21,2.28-.3l-.31-.93.93.62.94-2.48,1.23.62c.02-1,1.04-1.14,1.58-1.7.62-.65,2.09-2.96,2.53-3.22.17-.1,1.44.18,1.79.25l-.31-.93c1.17.26.78-.44,1.06-.8.72-.9,1-.47,1.05-.52.69-.63.71-2.32,1.89-1.53.19-.85,1.31-.96,2.08-1.5.57-.4.16-1.02,1.69-.94l.16,1.24c.84-.56.54-2.39,1.14-3.04.06-.06.47.17.58.08.36-.3.24-.98.61-1.24.29-.21.85-.04,1.16-.22.5-.3.82-2.09,2.57-1.47l-.31-.93c.7.04,2.76-.48,3.07-.99.11-.18-.27-.62-.12-.89.09-.16.57-.23.8-.52.18-.23.13-.76.36-.95.37-.32,1.33-.08,1.42-.15.24-.19,1.46-2.24,2.07-2.75.33-.28,1.58-.14,2.42-.6.12-.06,1.9-1.54,2-1.63.31-.31.52-2.26,1.18-.53.61-.91,1.71-1.28,1.4-2.49.84-.39,1,.64,1.09.65.46.03,2.55-1.91,2.97-2.35.2-.21,0-.63.07-.71.34-.38,2.59-1.87,3.06-2.17.13-.08.61.35,1.05-.03.56-.48.38-1.57,1.09-2.35,1.09-1.2,3.07-.92,3.33-1.17.28-.27-.12-1.45.99-.87l-.31-.93c1.6.09,2.44-.21,3.26-1.55l.31.64c1.75-.1.94-1.75,1.87-2.51.65-.53,1.02.13,1.33-.03.35-.18,1.26-1.92,1.38-2.05.25-.26,2.56-.89,3.02-.39l-.31-1.24c1.34.32,1.11-1.2,1.24-2.17.98-.06.87,1.07,1.85.78,1.28-.38,1.41-2.11,1.63-2.28s.76.05,1.09-.14c1.22-.69,1.28-3.33,3.51-2.4l-.31-.93.57.26c.2-1.11,1.18-.89,1.8-1.32.82-.57.97-2.03,2.6-2.21,1.35.26,2.18-1.33,3.26-2.01l.46.62.48-2.17,1.08.31v-.9c1.16.43,1.64-.59,1.76-.62.16-.04.54.25.74.14.44-.24.43-1.18.73-1.61.56-.78,2.64-2.88,3.6-1.97-.32-1.6.42-1.03.89-1.44.26-.23.97-1.22,1.05-1.25.27-.12.87.21,1.02.16.17-.05.1-.52.34-.56.99-.17,1.43.23,1.98.91l-.27-1.19c1.08-.17.75-1.14,1.19-1.78s1.37-1.23,2.04-1.7l.59.6c1.16-.35.95-1.22,1.15-1.48.04-.06.44.23.73-.04.34-.32.73-1.47.84-1.53.29-.16.79.24,1.2.1.31-.11,2.17-1.89,2.64-2.31.3-.28.4-.8.52-.88.34-.24,1.78.91,2.59-.97.15-.34.04-1.02.19-1.19.16-.18,1.16-.16,1.57-.39.93-.52,2.12-2.65,3.65-1.84l-.16-1.57c.72-1.04,2.13-.52,2.58-.67.35-.11.57-1.78,1.95-1l.91-1.9c.88-.24,1.71.58,2.04-.46l.75.32c-.29-1.56.81-1.57,1.57-2.32,1.69-1.67,2.25-1.28,3.1-1.89.42-.31-.02-1.18,1.2-.46l.69-1.51,1.33.32.19-.65.46.62.78-.32c-.47-.62-.62-.76-.31-1.55l.49.65,1.37-.34c-1.09-.94,1.77-3.1,2.47-3.27.31-.08,1.08.49,1.53.45.23-.42.38-1.34.64-1.64.25-.28.7-.12.86-.27.19-.19.13-.74.41-.99,1.41-1.23,2.98-1.18,3.94-1.81.33-.22.59-1.38,1.03-1.64.32-.19.77.18.88.12.29-.17,1.37-2.06,1.48-2.14.4-.31,2.98-.86,3.16-1.01.42-.35,1.2-2.24,1.71-2.61.45-.33,1.17-.05,1.62-.38.73-.54,1.01-2.32,1.85-.64.48-.79,1.45-.86,2.04-1.37.53-.46.94-1.62,1.54-1.89.66-.3,1.54.21,1.97-.11.3-.22.11-.7.26-.87.38-.45,1.72-.26,1.5-1.64l.57.25.35-.56.16.93c.51-.19.14-.83.21-.88,1.3-.87,2.93-2.28,4.59-3.29.33-.2,1.02.42,1.45-.83l1.04.34v-1.41c.88-.1,1.35.24,1.71-.77l1.08.63c.45-1.63,1.12-3.25,3.11-2.94v-1.08c.58.01,1.87-.65,1.87-1.25l.77.61c.67-.59.98-1.47,1.98-.98l.97-2.28,1.88.16-.24-.55c.52-.92,1.78-.88,2.04-1.04.19-.12.2-.86.53-1.19.31-.31.88-.35,1.24-.63,1.4-1.07.63-1.64,2.48-.3,1.76-1.96,2.85-2.15,3.26.92ZM295.17,198c-2.23-.93-1.77,1.83-3.72.93l.14,1.56c1.06.93,1.03-.15,1.45-.43.33-.22,2.65-1.51,2.13-2.06ZM170.36,327.16c.08-.81.89-.88.34-1.71-.92-1.39-1.33.19-2.5-.46.03,1.46,1.15,1.64,2.16,2.17Z"/><path class="cls-1" d="M295.17,198c.52.55-1.8,1.83-2.13,2.06-.42.28-.38,1.36-1.45.43l-.14-1.56c1.96.9,1.5-1.87,3.72-.93Z"/><path class="cls-1" d="M170.36,327.16c-1.02-.54-2.13-.72-2.16-2.17,1.17.65,1.58-.93,2.5.46.55.84-.26.9-.34,1.71Z"/></svg>