<svg width="46" height="46" viewBox="0 0 46 46" fill="none" xmlns="http://www.w3.org/2000/svg">
<path d="M12.2669 12.2437C12.8734 12.2437 13.4663 12.0638 13.9706 11.7269C14.4749 11.3899 14.868 10.9109 15.1001 10.3506C15.3322 9.79022 15.3929 9.17362 15.2746 8.57874C15.1563 7.98387 14.8642 7.43744 14.4353 7.00856C14.0064 6.57968 13.46 6.28761 12.8651 6.16928C12.2703 6.05095 11.6537 6.11168 11.0933 6.34379C10.5329 6.5759 10.054 6.96896 9.71702 7.47327C9.38005 7.97758 9.2002 8.57049 9.2002 9.17702C9.2002 9.99035 9.52329 10.7704 10.0984 11.3455C10.6735 11.9206 11.4535 12.2437 12.2669 12.2437ZM12.2669 7.64369C12.5701 7.64369 12.8666 7.73362 13.1187 7.9021C13.3709 8.07058 13.5674 8.31006 13.6835 8.59024C13.7995 8.87042 13.8299 9.17872 13.7707 9.47616C13.7116 9.7736 13.5655 10.0468 13.3511 10.2613C13.1367 10.4757 12.8634 10.6217 12.566 10.6809C12.2686 10.7401 11.9603 10.7097 11.6801 10.5936C11.3999 10.4776 11.1604 10.281 10.9919 10.0289C10.8235 9.77674 10.7335 9.48028 10.7335 9.17702C10.7335 8.77035 10.8951 8.38034 11.1826 8.09279C11.4702 7.80523 11.8602 7.64369 12.2669 7.64369Z" fill="#6D2CF8"/>
<path d="M42.1669 30.6669H36.0336V12.6771C36.0345 11.9839 35.7705 11.3165 35.2956 10.8115C34.8208 10.3065 34.1709 10.0021 33.4789 9.96048C32.787 9.91885 32.1053 10.1432 31.5733 10.5876C31.0413 11.032 30.6992 11.6629 30.6171 12.3512L30.3219 12.6656C29.3108 13.748 28.0882 14.6114 26.7299 15.2022C25.3716 15.793 23.9065 16.0986 22.4252 16.1002H20.6197C21.3666 14.483 21.6279 12.6838 21.3719 10.921C21.116 9.1582 20.3538 7.5076 19.1778 6.1696C18.0019 4.8316 16.4628 3.86376 14.7475 3.38356C13.0321 2.90336 11.2143 2.93147 9.51457 3.46447C7.81488 3.99747 6.30647 5.01244 5.17248 6.38616C4.03849 7.75987 3.32767 9.43325 3.12634 11.2031C2.92501 12.973 3.24181 14.7633 4.0383 16.3566C4.83478 17.9499 6.07668 19.2778 7.61323 20.1789L7.68223 20.2172C8.59564 20.7438 9.59277 21.1095 10.6301 21.2982C10.2051 21.7634 9.96866 22.3702 9.9669 23.0002C9.98211 23.6479 10.2311 24.2682 10.668 24.7466C11.1048 25.225 11.6999 25.5292 12.3436 25.6031C12.5811 26.5286 13.0465 27.38 13.6973 28.0796C14.3481 28.7793 15.1636 29.305 16.0696 29.6089V33.3234C16.0558 33.6891 16.116 34.0539 16.2465 34.3959C16.377 34.7378 16.5751 35.0499 16.829 35.3136C17.0829 35.5772 17.3874 35.7869 17.7242 35.9301C18.0611 36.0734 18.4233 36.1472 18.7893 36.1472C19.1553 36.1472 19.5176 36.0734 19.8544 35.9301C20.1912 35.7869 20.4957 35.5772 20.7496 35.3136C21.0035 35.0499 21.2016 34.7378 21.3321 34.3959C21.4626 34.0539 21.5228 33.6891 21.5091 33.3234V29.9002H22.4252C23.8357 29.9036 25.2318 30.1836 26.5346 30.7244C26.3954 30.7833 26.2767 30.8821 26.1935 31.0083C26.1103 31.1345 26.0663 31.2824 26.0669 31.4336V42.1669C26.0669 42.3702 26.1477 42.5652 26.2914 42.709C26.4352 42.8528 26.6302 42.9336 26.8336 42.9336H42.1669C42.3702 42.9336 42.5652 42.8528 42.709 42.709C42.8528 42.5652 42.9336 42.3702 42.9336 42.1669V31.4336C42.9336 31.2302 42.8528 31.0352 42.709 30.8914C42.5652 30.7477 42.3702 30.6669 42.1669 30.6669ZM34.5002 35.8726L29.1336 32.2002H39.8669L34.5002 35.8726ZM33.3081 11.5002C33.4636 11.4992 33.6178 11.5288 33.7619 11.5874C33.906 11.646 34.0372 11.7324 34.1479 11.8417C34.2586 11.951 34.3467 12.081 34.4071 12.2243C34.4676 12.3677 34.4992 12.5215 34.5002 12.6771V30.6669H32.1197V12.6771C32.1228 12.3639 32.2493 12.0646 32.4718 11.8442C32.6944 11.6238 32.9949 11.5002 33.3081 11.5002ZM30.5864 14.5439V30.6669H29.5744C27.6978 29.3357 25.488 28.5526 23.1919 28.4052V17.6029C25.9289 17.4271 28.53 16.3471 30.5864 14.5324V14.5439ZM4.60023 12.2439C4.60066 11.067 4.87201 9.90611 5.39325 8.851C5.9145 7.79589 6.67164 6.87494 7.60603 6.1595C8.54042 5.44405 9.62697 4.95331 10.7815 4.72531C11.9361 4.4973 13.1276 4.53814 14.2638 4.84467C15.4 5.15119 16.4504 5.71517 17.3336 6.49292C18.2168 7.27067 18.9091 8.2413 19.3569 9.32962C19.8047 10.4179 19.9959 11.5947 19.9158 12.7688C19.8356 13.9429 19.4862 15.0828 18.8947 16.1002H17.8789C17.5537 16.1021 17.2293 16.1316 16.9091 16.1884C16.4868 15.1067 15.7001 14.2065 14.6848 13.6431C13.6696 13.0797 12.4894 12.8885 11.3482 13.1026C10.2069 13.3167 9.17628 13.9225 8.43418 14.8156C7.69208 15.7086 7.28511 16.8328 7.28356 17.9939V18.0591C6.44212 17.3417 5.76642 16.4502 5.30314 15.4462C4.83985 14.4422 4.60003 13.3496 4.60023 12.2439ZM12.5046 19.9106H12.2669C11.0678 19.9098 9.88574 19.6261 8.8169 19.0826V17.9939C8.81842 17.1992 9.09421 16.4295 9.59767 15.8147C10.1011 15.1999 10.8014 14.7777 11.5801 14.6195C12.3589 14.4614 13.1683 14.5768 13.8718 14.9465C14.5752 15.3162 15.1295 15.9173 15.4409 16.6484C14.7616 16.9713 14.1526 17.4249 13.6488 17.9834C13.145 18.5418 12.7561 19.1941 12.5046 19.9029V19.9106ZM11.5002 23.0002C11.505 22.7917 11.5702 22.5891 11.6879 22.4169C11.8057 22.2448 11.9708 22.1105 12.1634 22.0304V23.9701C11.9708 23.8899 11.8057 23.7557 11.6879 23.5835C11.5702 23.4114 11.505 23.2087 11.5002 23.0002ZM13.6967 24.1962V21.8042C13.6988 20.6967 14.1404 19.6353 14.9246 18.8533C15.7088 18.0713 16.7714 17.6325 17.8789 17.6336H21.6586V28.3669H17.8789C16.7727 28.3659 15.7121 27.9263 14.9296 27.1444C14.147 26.3626 13.7064 25.3024 13.7044 24.1962H13.6967ZM19.9834 33.3234C19.9926 33.4849 19.9687 33.6465 19.9132 33.7984C19.8578 33.9504 19.7719 34.0894 19.6608 34.2069C19.5497 34.3245 19.4158 34.4182 19.2673 34.4822C19.1187 34.5462 18.9587 34.5792 18.797 34.5792C18.6352 34.5792 18.4752 34.5462 18.3267 34.4822C18.1782 34.4182 18.0442 34.3245 17.9332 34.2069C17.8221 34.0894 17.7362 33.9504 17.6807 33.7984C17.6253 33.6465 17.6014 33.4849 17.6106 33.3234V29.9002H19.9834V33.3234ZM27.6002 41.4002V33.0091L34.0671 37.4327H34.1016C34.1435 37.4598 34.1886 37.4816 34.2357 37.4979L34.2971 37.5209C34.3621 37.5464 34.4306 37.5619 34.5002 37.5669C34.5665 37.5661 34.6324 37.5557 34.6957 37.5362L34.7571 37.5132C34.8042 37.497 34.8493 37.4751 34.8912 37.4481H34.9257L41.4002 33.0091V41.4002H27.6002Z" fill="#6D2CF8"/>
<path d="M38.3336 25.6831C38.5369 25.6831 38.7319 25.6023 38.8757 25.4585C39.0195 25.3147 39.1002 25.1197 39.1002 24.9164V21.0831C39.1002 20.8797 39.0195 20.6847 38.8757 20.541C38.7319 20.3972 38.5369 20.3164 38.3336 20.3164C38.1302 20.3164 37.9352 20.3972 37.7914 20.541C37.6477 20.6847 37.5669 20.8797 37.5669 21.0831V24.9164C37.5669 25.1197 37.6477 25.3147 37.7914 25.4585C37.9352 25.6023 38.1302 25.6831 38.3336 25.6831Z" fill="#6D2CF8"/>
<path d="M40.6334 27.9833C40.8367 27.9833 41.0317 27.9025 41.1755 27.7587C41.3193 27.6149 41.4 27.4199 41.4 27.2166V18.7833C41.4 18.5799 41.3193 18.3849 41.1755 18.2412C41.0317 18.0974 40.8367 18.0166 40.6334 18.0166C40.43 18.0166 40.235 18.0974 40.0913 18.2412C39.9475 18.3849 39.8667 18.5799 39.8667 18.7833V27.2166C39.8667 27.4199 39.9475 27.6149 40.0913 27.7587C40.235 27.9025 40.43 27.9833 40.6334 27.9833Z" fill="#6D2CF8"/>
</svg>
