<svg width="46" height="46" viewBox="0 0 46 46" fill="none" xmlns="http://www.w3.org/2000/svg">
<g clip-path="url(#clip0_898_7355)">
<path d="M22.9811 10.8124H22.9862C25.2634 10.811 27.1086 8.96401 27.1071 6.68642C27.1057 4.40919 25.2587 2.564 22.9811 2.56543H22.9794C20.7021 2.56615 18.8566 4.41241 18.8569 6.69C18.8573 8.96723 20.7039 10.8131 22.9811 10.8124ZM22.9829 4.03156H22.9844C24.4519 4.0312 25.6421 5.22065 25.6424 6.68821C25.6428 8.15578 24.4534 9.34593 22.9858 9.34629H22.9829C22.9822 9.34629 22.9819 9.33269 22.9811 9.33305C21.5236 9.32374 20.3467 8.13931 20.347 6.68141C20.3474 5.22351 21.5254 4.0398 22.9829 4.03156Z" fill="#FAB32F"/>
<path d="M32.5658 8.15545H32.622C34.8742 8.14042 36.6875 6.30239 36.6721 4.05021C36.6571 1.7984 34.8191 -0.0149407 32.5669 9.28053e-05H32.5651C30.3133 0.000450748 28.4878 1.82632 28.4878 4.07813C28.4882 6.33031 30.314 8.15581 32.5658 8.15545ZM32.5691 1.46623H32.5701C33.2695 1.46551 33.9407 1.74291 34.4357 2.23723C34.9304 2.73191 35.2085 3.40269 35.2082 4.10247C35.2117 4.79115 34.9386 5.45263 34.4504 5.93907C33.9625 6.42516 33.3 6.69541 32.6109 6.68932H32.5669C31.1248 6.68896 29.9561 5.51921 29.9564 4.07706C29.9568 2.63455 31.1265 1.46587 32.5687 1.46623H32.5691Z" fill="#FAB32F"/>
<path d="M7.57409 20.526H16.4027V22.4571C16.4149 22.8652 16.7517 23.1884 17.1601 23.1834H28.8051C28.9955 23.1837 29.1781 23.1064 29.3101 22.9693C29.4426 22.8326 29.5131 22.6476 29.5063 22.4571V20.526H38.4266C38.6138 20.5332 38.7956 20.4623 38.9284 20.3302C39.0616 20.1985 39.1335 20.017 39.1278 19.8298V14.4564C39.1357 12.9548 38.5433 11.5123 37.4827 10.4496C36.4217 9.3865 34.9799 8.79196 33.4784 8.79697H31.7517C29.5313 8.79733 27.5086 10.073 26.5515 12.0764C25.7246 11.6172 24.7965 11.372 23.8512 11.3627H22.1223C21.1791 11.372 20.2535 11.6161 19.4281 12.0721C18.4806 10.0709 16.4639 8.79518 14.2494 8.79697H12.5359C11.035 8.78838 9.59252 9.37898 8.52943 10.4385C7.46599 11.498 6.86965 12.938 6.87288 14.4389V19.8298C6.86715 20.017 6.9391 20.1985 7.07225 20.3302C7.20505 20.4623 7.38688 20.5332 7.57409 20.526ZM31.7517 10.2631H33.4712C34.5851 10.2559 35.6554 10.6955 36.4429 11.4833C37.2303 12.2712 37.6692 13.3414 37.6617 14.4553V19.0599H29.5063V17.0837C29.5177 15.5746 28.9254 14.1239 27.8608 13.054C27.824 13.0171 27.7943 13.0049 27.7567 12.9695C28.4113 11.3366 29.9927 10.2656 31.7517 10.2631ZM22.1234 12.8288H23.8497C24.9687 12.8299 26.0396 13.2813 26.8224 14.0806C27.6121 14.8791 28.0505 15.9598 28.0402 17.0826V21.7173H17.8689V17.0672C17.8828 14.7259 19.7821 12.8342 22.1234 12.8288ZM8.33901 14.4403C8.33543 13.3274 8.77749 12.2597 9.56604 11.4751C10.3549 10.6905 11.4248 10.2538 12.5373 10.2631H14.2476C15.995 10.2627 17.5643 11.3337 18.2 12.9616C17.0596 14.0201 16.4088 15.5041 16.4027 17.0601V19.0599H8.33901V14.4403Z" fill="#FAB32F"/>
<path d="M13.3952 8.15538H13.3973C15.6563 8.15538 17.4593 6.37713 17.5026 4.08236C17.5026 4.0777 17.5026 4.08844 17.5026 4.08379C17.4972 1.82159 15.6577 -0.0074937 13.3952 2.30854e-05H13.3934C11.128 -0.000334857 9.29102 1.83555 9.29102 4.10097C9.29352 5.1841 9.72806 6.22178 10.4987 6.98276C11.2694 7.74411 12.312 8.16612 13.3952 8.15538ZM11.5289 2.23072C12.0243 1.73604 12.6972 1.46043 13.3973 1.46616H13.3988C14.0971 1.46114 14.7686 1.73569 15.2633 2.22893C15.758 2.71251 16.0368 3.3747 16.0364 4.06661C16.0049 5.55099 14.847 6.68925 13.3973 6.68925H13.3955C12.6983 6.6939 12.0282 6.42008 11.5328 5.92898C11.0378 5.43824 10.7586 4.76996 10.7575 4.07269C10.7554 3.37972 11.0335 2.71537 11.5289 2.23072Z" fill="#FAB32F"/>
<path d="M31.4431 30.3537C31.3049 30.2184 31.1181 30.1443 30.9248 30.1475H30.9241L26.8453 30.1436C26.6517 30.1428 26.4659 30.2191 26.3284 30.3555C26.1913 30.4918 26.1137 30.6773 26.1133 30.8709L26.1004 37.3923C26.0972 39.1039 24.7141 40.4924 23.0024 40.5021H22.9985C21.2922 40.4928 19.9152 39.1046 19.9195 37.3983L19.927 33.7416C19.9295 33.7158 19.9306 33.6901 19.9306 33.6643C19.9306 33.6424 19.9291 33.6199 19.9274 33.5981L19.9324 30.8827C19.9331 30.688 19.8561 30.5011 19.7187 30.363C19.5812 30.2252 19.3944 30.1475 19.1993 30.1475H19.1975L15.1191 30.1597C14.7161 30.1611 14.39 30.4883 14.3903 30.8913L14.3868 33.6729V33.6747L14.3775 37.3998C14.3728 39.6817 15.277 41.8712 16.8899 43.4848C18.5027 45.0984 20.6919 46.0036 22.9734 46.0001H23.0003C27.7584 46.0001 31.6378 42.1189 31.6485 37.3604L31.6532 33.9703C31.6589 33.9206 31.6589 33.8701 31.6532 33.8203L31.6575 30.868C31.6578 30.6747 31.5809 30.4893 31.4431 30.3537ZM30.1906 31.5968L30.1885 33.1664L27.5748 33.1714L27.578 31.6L30.1906 31.5968ZM18.4648 31.6161L18.4623 32.9326L15.85 32.9377L15.8529 31.6237L18.4648 31.6161ZM22.9964 44.5339H22.9742C21.081 44.5379 19.2641 43.7873 17.9254 42.4482C16.5867 41.1091 15.8368 39.2919 15.8411 37.3983L15.8472 34.402L18.4594 34.3981L18.4533 37.3883C18.4437 39.9082 20.4786 41.9589 22.9985 41.9682H23.0042C25.5238 41.9557 27.5612 39.9122 27.5666 37.3923L27.5719 34.645L30.1863 34.6357L30.1824 37.3593C30.1677 41.32 26.9573 44.5253 22.9964 44.5339Z" fill="#FAB32F"/>
<path d="M16.8858 28.5895C17.2928 28.5817 17.6188 28.2495 17.6188 27.8422L17.6264 25.29C17.6271 25.096 17.5505 24.9095 17.4134 24.7721C17.2759 24.6346 17.0898 24.5577 16.8958 24.5577H16.8933C16.7004 24.5552 16.5146 24.63 16.3771 24.7649C16.2393 24.9002 16.1613 25.0846 16.1602 25.2775L16.1524 27.8432C16.1502 28.2502 16.4763 28.5835 16.8833 28.5895H16.8858Z" fill="#FAB32F"/>
<path d="M20.1016 29.949L21.9067 28.1439C22.193 27.8576 22.193 27.3937 21.9067 27.1073C21.6203 26.821 21.1561 26.821 20.8701 27.1073L19.0646 28.9124C18.7786 29.1988 18.7786 29.6627 19.0646 29.949C19.3509 30.2354 19.8152 30.2354 20.1016 29.949Z" fill="#FAB32F"/>
<path d="M15.1483 29.4824C15.4347 29.1964 15.4347 28.7322 15.1483 28.4458L13.3432 26.6407C13.0561 26.3598 12.5966 26.3623 12.3123 26.6465C12.0285 26.9303 12.0256 27.3899 12.3066 27.6773L14.1117 29.4824C14.3981 29.7688 14.862 29.7688 15.1483 29.4824Z" fill="#FAB32F"/>
<path d="M29.0397 28.4983C29.2319 28.5026 29.4177 28.4296 29.5555 28.2957C29.6933 28.1619 29.7717 27.9783 29.7728 27.786L29.7771 25.26C29.776 25.0689 29.6976 24.8863 29.5594 24.7539C29.4216 24.6218 29.2359 24.551 29.0451 24.5581H29.0436C28.8518 24.5531 28.666 24.6254 28.5282 24.7589C28.3904 24.8921 28.312 25.0753 28.3106 25.2672L28.3066 27.795C28.3074 27.9861 28.3857 28.169 28.5236 28.3015C28.6617 28.4343 28.8475 28.5051 29.0386 28.4983H29.0397Z" fill="#FAB32F"/>
<path d="M33.89 27.8968C34.1706 27.6097 34.1681 27.1501 33.8843 26.8659C33.6001 26.5821 33.1405 26.5796 32.8534 26.8602L31.0444 28.6692C30.758 28.9556 30.758 29.4198 31.0444 29.7062C31.3307 29.9925 31.795 29.9925 32.0813 29.7062L33.89 27.8968Z" fill="#FAB32F"/>
<path d="M26.8379 29.6822C27.1343 29.6822 27.4017 29.5036 27.5151 29.2298C27.6286 28.9559 27.566 28.6406 27.3562 28.4308L25.5511 26.6257C25.264 26.3423 24.8023 26.3437 24.5174 26.629C24.2324 26.9139 24.231 27.3756 24.5141 27.6623L26.3196 29.4674C26.4567 29.6053 26.6432 29.6826 26.8379 29.6822Z" fill="#FAB32F"/>
</g>
<defs>
<clipPath id="clip0_898_7355">
<rect width="46" height="46" fill="white"/>
</clipPath>
</defs>
</svg>
