<svg width="20" height="20" viewBox="0 0 20 20" fill="none" xmlns="http://www.w3.org/2000/svg">
<g clip-path="url(#clip0_898_7542)">
<path d="M19.5919 -0.00036819C15.6836 -0.0670349 11.2336 1.97463 8.41689 5.1413C5.72522 5.1913 3.10022 6.2913 1.16689 8.22463C1.05856 8.33297 1.01689 8.49963 1.06689 8.64963C1.11689 8.79963 1.24189 8.90797 1.40022 8.93297L4.61689 9.3913L4.21689 9.8413C4.06689 9.99963 4.07522 10.258 4.23356 10.408L7.93356 14.108C8.18356 10.6496 11.0669 7.9163 14.5836 7.9163C15.6086 7.9163 16.5836 8.14963 17.4502 8.5663C19.0919 6.0663 20.0586 3.10797 20.0002 0.407965C19.9919 0.182965 19.8169 0.00796514 19.5919 -0.00036819ZM15.7502 7.19963C15.3419 7.59963 14.8086 7.80797 14.2752 7.80797C13.7419 7.80797 13.2086 7.59963 12.8002 7.19963C11.9919 6.38297 11.9919 5.05797 12.8002 4.24963C13.6169 3.43297 14.9419 3.43297 15.7502 4.24963C16.5586 5.05797 16.5586 6.38297 15.7502 7.19963Z" fill="white"/>
<path d="M2.27005 14.0878C1.37838 14.9794 0.154215 19.0078 0.0175478 19.4636C-0.0266188 19.6103 0.0142145 19.7694 0.121714 19.8778C0.201715 19.9578 0.307548 20.0003 0.416714 20.0003C0.456714 20.0003 0.496714 19.9944 0.536714 19.9828C0.992548 19.8461 5.02088 18.6219 5.91255 17.7303C6.91671 16.7261 6.91671 15.0919 5.91255 14.0878C4.90755 13.0836 3.27421 13.0844 2.27005 14.0878Z" fill="white"/>
<path d="M14.5832 9.16699C11.5965 9.16699 9.1665 11.597 9.1665 14.5837C9.1665 17.5703 11.5965 20.0003 14.5832 20.0003C17.5698 20.0003 19.9998 17.5703 19.9998 14.5837C19.9998 11.597 17.5698 9.16699 14.5832 9.16699ZM16.9165 13.5503L14.2082 16.467C14.0848 16.5995 13.9173 16.667 13.7498 16.667C13.6057 16.667 13.4607 16.617 13.3432 16.5162L11.8848 15.2662C11.6232 15.0412 11.5923 14.647 11.8173 14.3845C12.0432 14.1228 12.4365 14.092 12.699 14.317L13.7007 15.1762L16.0007 12.6995C16.2373 12.447 16.6315 12.432 16.8848 12.6662C17.1357 12.902 17.1507 13.2978 16.9165 13.5503Z" fill="white"/>
</g>
<defs>
<clipPath id="clip0_898_7542">
<rect width="20" height="20" fill="white"/>
</clipPath>
</defs>
</svg>
