<svg width="20" height="24" viewBox="0 0 20 24" fill="none" xmlns="http://www.w3.org/2000/svg">
<path d="M13.0179 19.4118C13.0179 19.6565 12.9221 19.8824 12.7557 20.0518H3.8436C3.25383 19.4588 3.74279 18.4235 4.61989 18.4424H11.9795C12.5541 18.4424 13.0179 18.8753 13.0179 19.4118ZM3.8436 20.7059C3.25383 21.2988 3.74279 22.3341 4.61989 22.3153H11.9795C12.8566 22.3341 13.3455 21.2941 12.7507 20.7059H3.8436ZM6.77231 24H9.83207C10.4874 24 11.0267 23.5529 11.1326 22.9694H5.47178C5.57764 23.5529 6.117 24 6.77231 24ZM13.3909 14.3624C12.3121 15.2376 11.6518 16.4706 11.5157 17.7882H9.28263V4.61176C9.28263 4.33412 9.53467 4.11294 9.83207 4.13647C15.3467 4.59294 17.4991 11.0541 13.3909 14.3624ZM14.3688 9.95765C14.3839 7.98118 12.9927 6.12706 10.9864 5.48235C10.7797 5.41176 10.5428 5.51529 10.4723 5.71294C10.3966 5.91059 10.5025 6.12235 10.7142 6.19294C12.3978 6.73412 13.5723 8.29177 13.5572 9.95765C13.5673 10.4518 14.3638 10.4518 14.3688 9.95765ZM4.11077 15.5482C4.37289 15.2941 4.9677 14.9647 5.1895 15.4306C5.27015 15.6235 5.16429 15.8447 4.95258 15.92C4.04524 16.3059 4.51403 17.4494 5.0786 17.7882H6.88825C7.27639 17.5247 7.52843 17.1012 7.52843 16.6212V5.95294C7.51835 4.41412 5.26007 3.96235 4.5846 5.36C5.12901 5.45882 6.73702 6.73882 5.58268 6.97882C5.19958 6.96471 5.11389 6.48941 4.81144 6.32941C3.29416 5.20941 1.1367 6.74353 1.792 8.37647C2.47755 8.25882 3.37985 8.57412 3.83856 9.11529C4.0654 9.34588 3.85873 9.74588 3.53107 9.73647C3.41514 9.73647 3.30424 9.68941 3.22359 9.6C3.11773 9.48235 2.88081 9.26588 2.50779 9.16706C2.24567 9.08706 1.88273 9.10588 1.67102 9.17176C-0.420912 9.74118 -0.592299 12.5176 1.40386 13.3129C1.67606 12.9035 3.26895 11.7694 3.55628 12.5647C3.61173 12.7671 3.47563 12.9741 3.26391 13.0212C0.965308 13.5529 1.28288 16.5647 3.65205 16.6259C3.6571 16.2588 3.78311 15.8541 4.11077 15.5482ZM14.7116 5.32235C14.8174 5.32235 14.9182 5.28471 14.9989 5.21412L16.869 3.46824C17.237 3.11059 16.6775 2.58824 16.2994 2.93647L14.4293 4.68235C14.1672 4.90353 14.3638 5.33176 14.7116 5.32235ZM19.6011 9.63294H16.9598C16.4254 9.64235 16.4305 10.3812 16.9598 10.3859H19.6011C20.1355 10.3812 20.1304 9.64235 19.6011 9.63294ZM14.9939 14.8141C14.6108 14.4706 14.0512 14.9929 14.4242 15.3459L16.2944 17.0918C16.6724 17.44 17.237 16.9082 16.864 16.56C16.864 16.5553 14.9939 14.8141 14.9939 14.8141ZM9.28263 3.22353C9.50442 3.22353 9.68589 3.05412 9.68589 2.84706V0.376471C9.68589 0.169412 9.50442 0 9.28263 0C9.06083 0 8.87936 0.169412 8.87936 0.376471V2.84235C8.87936 3.05412 9.06083 3.22353 9.28263 3.22353Z" fill="white"/>
</svg>
