<svg width="30" height="30" viewBox="0 0 30 30" fill="none" xmlns="http://www.w3.org/2000/svg">
<path d="M15.0692 4.18395C15.0692 3.51416 15.6121 2.97117 16.2819 2.97117C16.4827 2.97117 16.672 3.01998 16.8388 3.10629C16.9821 3.18047 17.141 3.17508 17.2789 3.09117C17.4168 3.00732 17.4947 2.86869 17.4947 2.70732V0.410156C21.32 0.410156 25.1445 2.67604 25.2083 7.20686C24.7429 6.93281 24.2382 6.72023 23.7053 6.57744C22.1566 6.16248 20.5155 6.37863 19.1273 7.18014C18.498 7.54348 17.9474 8.01111 17.4946 8.55803V5.66045C17.4946 5.49908 17.4166 5.36045 17.2788 5.2766C17.141 5.19275 16.9821 5.1873 16.8387 5.26148C16.672 5.34779 16.4826 5.3966 16.2819 5.3966C15.6121 5.3966 15.0691 4.85367 15.0691 4.18389L15.0692 4.18395ZM5.29236 4.34133C5.44365 4.50855 5.70193 4.52145 5.86916 4.37016C6.03639 4.21887 6.04928 3.96059 5.89799 3.79336L4.90143 2.69062C4.75014 2.5234 4.49186 2.51051 4.32463 2.6618C4.1574 2.81309 4.14451 3.07137 4.2958 3.23859L5.29236 4.34133ZM12.4615 2.29576C12.6881 2.29576 12.8717 2.11213 12.8717 1.88561V0.410156C12.8717 0.183633 12.6881 0 12.4615 0C12.235 0 12.0514 0.183633 12.0514 0.410156V1.88555C12.0514 2.11207 12.235 2.29576 12.4615 2.29576ZM2.09631 10.2083L0.408574 10.2111C0.18293 10.2111 0 10.394 0 10.6196C0 10.8453 0.18293 11.0282 0.408574 11.0282L2.09631 11.0254C2.32195 11.0254 2.50488 10.8425 2.50488 10.6168C2.50488 10.3912 2.32195 10.2083 2.09631 10.2083ZM25.7029 5.66695C25.8887 5.79527 26.1434 5.74863 26.2716 5.56283L26.7334 4.8917C26.8617 4.7059 26.8151 4.45119 26.6293 4.32293C26.4435 4.19467 26.1888 4.24125 26.0605 4.42705L25.5987 5.09824C25.4704 5.28404 25.517 5.53869 25.7029 5.66695ZM27.7371 7.65029L28.6204 7.22965C28.8247 7.13232 28.9115 6.8877 28.8142 6.68332C28.7169 6.47895 28.4722 6.39217 28.2679 6.48949L27.3846 6.91014C27.1802 7.00746 27.0935 7.25209 27.1908 7.45647C27.2881 7.66084 27.5327 7.74768 27.7371 7.65029ZM28.8943 9.42703L28.0822 9.3627C27.8566 9.345 27.6593 9.51357 27.6416 9.73922C27.6239 9.96486 27.7925 10.1621 28.0181 10.1798L28.8302 10.2441C29.0559 10.2618 29.2532 10.0932 29.2709 9.8676C29.2886 9.64195 29.12 9.44473 28.8943 9.42703ZM8.48525 23.9763C8.48525 24.295 8.74611 24.5558 9.06475 24.5558H15.9982C16.3168 24.5558 16.5777 24.295 16.5777 23.9763V22.9567H8.48525V23.9763ZM16.9191 15.4216C16.5715 14.8196 16.3341 14.1701 16.2104 13.5012H12.9416V16.8856C12.9416 16.971 13.0255 17.0222 13.1017 16.9828C13.2268 16.9179 13.3619 16.8671 13.5048 16.8325C13.6457 16.7983 13.789 16.7802 13.9325 16.7802C14.4326 16.7802 14.8853 16.9829 15.2131 17.3107C15.5409 17.6385 15.7436 18.0913 15.7436 18.5914C15.7436 19.0915 15.5409 19.5442 15.2131 19.872C14.8853 20.1998 14.4326 20.4025 13.9325 20.4025C13.789 20.4025 13.6456 20.3844 13.5047 20.3503C13.3619 20.3156 13.2268 20.2648 13.1017 20.2C13.0255 20.1605 12.9416 20.2118 12.9416 20.2971V22.1365H16.5904C16.7085 20.2337 17.6404 18.9329 18.6364 17.543L18.7452 17.391C18.0037 16.886 17.3781 16.2166 16.9191 15.4216V15.4216ZM11.1603 28.523C11.1603 28.8417 11.4211 29.1025 11.7398 29.1025H13.323C13.6417 29.1025 13.9025 28.8417 13.9025 28.523V27.7547H11.1603V28.523ZM9.52734 26.3549C9.52734 26.6736 9.7882 26.9344 10.1068 26.9344H14.9559C15.2746 26.9344 15.5354 26.6735 15.5354 26.3549V25.3761H9.52734V26.3549ZM12.1212 20.2971C12.1212 19.9678 12.2865 19.6754 12.5676 19.5043C12.8478 19.3339 13.1852 19.3215 13.4766 19.4725C13.8566 19.6693 14.3273 19.5977 14.633 19.2919C14.8123 19.1126 14.9232 18.8649 14.9232 18.5913C14.9232 18.3176 14.8123 18.0698 14.633 17.8905C14.3272 17.5847 13.8566 17.5132 13.4766 17.7101C13.1851 17.8609 12.8479 17.8487 12.5676 17.6782C12.2865 17.5072 12.1212 17.2147 12.1212 16.8855V13.5012H9.68145C9.59613 13.5012 9.54481 13.5851 9.5843 13.6613C9.64904 13.7863 9.6999 13.9214 9.73459 14.0644C9.76875 14.2052 9.78691 14.3486 9.78691 14.4921C9.78691 14.9921 9.58418 15.4449 9.25641 15.7727C8.92863 16.1005 8.47582 16.3032 7.97572 16.3032C7.47563 16.3032 7.02287 16.1005 6.6951 15.7727C6.36732 15.4449 6.16459 14.9921 6.16459 14.4921C6.16459 14.3486 6.1827 14.2052 6.21686 14.0644C6.25154 13.9215 6.30234 13.7864 6.36715 13.6613C6.40658 13.5851 6.35531 13.5012 6.26994 13.5012H4.30465C4.73543 15.1843 5.60408 16.3965 6.42621 17.5434C7.42231 18.9331 8.35441 20.2338 8.47254 22.1365H12.1213V20.2971L12.1212 20.2971ZM7.0626 13.1273C7.23311 13.4075 7.24547 13.7448 7.09447 14.0362C6.89766 14.4163 6.96914 14.8869 7.275 15.1927C7.4543 15.372 7.70203 15.4829 7.97566 15.4829C8.2493 15.4829 8.49709 15.372 8.67633 15.1927C8.98225 14.8868 9.05361 14.4163 8.8568 14.0362C8.70592 13.7449 8.71822 13.4075 8.88867 13.1273C9.05965 12.8462 9.35221 12.6809 9.68133 12.6809H12.1211V9.06932C12.1211 8.98529 12.0806 8.91317 12.009 8.86934C11.9373 8.82557 11.8546 8.82246 11.7798 8.86078C11.585 8.96062 11.3642 9.01699 11.1302 9.01699C10.3426 9.01699 9.70412 8.3785 9.70412 7.59088C9.70412 6.80326 10.3426 6.16477 11.1302 6.16477C11.3642 6.16477 11.585 6.22113 11.7798 6.32098C11.8546 6.3593 11.9372 6.35625 12.009 6.31242C12.0806 6.26865 12.1211 6.19647 12.1211 6.11244V3.64939C9.96967 3.73102 7.85807 4.45541 6.33182 5.82264C4.93717 7.07203 4.02873 8.86904 4.02873 11.2157C4.02873 11.7407 4.0674 12.2271 4.13725 12.681H6.26982C6.599 12.681 6.89156 12.8462 7.06248 13.1273L7.0626 13.1273ZM28.5736 21.3116C28.8803 21.8428 28.6966 22.5282 28.1654 22.8349C27.6343 23.1415 26.9488 22.9579 26.6422 22.4268L24.4955 18.7086C24.3537 18.4631 24.4286 18.1502 24.6601 17.9939L24.5697 17.8373C24.3626 17.4787 23.9521 17.3118 23.5536 17.4242C22.6813 17.6702 21.7335 17.6917 20.7945 17.4401C18.0137 16.695 16.3634 13.8366 17.1086 11.0558C17.8537 8.27496 20.712 6.62467 23.4928 7.3698C26.2736 8.11494 27.9239 10.9733 27.1788 13.7541C26.9272 14.6931 26.4346 15.5031 25.7855 16.1355C25.4889 16.4245 25.4282 16.8635 25.6352 17.2222L25.7256 17.3787C25.9768 17.2564 26.2852 17.348 26.4269 17.5935L28.5735 21.3116H28.5736ZM25.9839 13.4304C26.5525 11.3082 25.2931 9.12691 23.1709 8.55826C21.0487 7.98961 18.8673 9.24902 18.2987 11.3712C17.73 13.4934 18.9894 15.6747 21.1116 16.2434C23.2338 16.812 25.4152 15.5526 25.9838 13.4304H25.9839ZM22.1412 14.0102C21.7931 14.0102 21.5109 14.2924 21.5109 14.6406C21.5109 14.9887 21.7931 15.2709 22.1412 15.2709C22.4894 15.2709 22.7716 14.9887 22.7716 14.6406C22.7716 14.2924 22.4894 14.0102 22.1412 14.0102ZM22.1412 13.4472C22.4012 13.4472 22.6119 13.2365 22.6119 12.9766V10.0014C22.6119 9.74145 22.4012 9.53074 22.1412 9.53074C21.8813 9.53074 21.6706 9.74145 21.6706 10.0014V12.9766C21.6706 13.2365 21.8813 13.4472 22.1412 13.4472Z" fill="#FED91F"/>
</svg>
