<svg width="31" height="30" viewBox="0 0 31 30" fill="none" xmlns="http://www.w3.org/2000/svg">
<path d="M22.9561 23.2406V25.4224C22.9561 25.6595 22.7664 25.8967 22.4818 25.8967H18.5451C18.4503 25.2327 18.8771 23.1932 17.6914 20.8691H19.7309L20.2526 22.7663H22.5292C22.7664 22.7663 22.9561 22.956 22.9561 23.2406Z" fill="#FED91F"/>
<path d="M28.8374 0H5.59685C4.74312 0 4.0791 0.711445 4.0791 1.51775V2.75092C4.36368 2.51377 4.69569 2.32406 5.0277 2.13434V1.51775C5.0277 1.18574 5.31227 0.948594 5.59685 0.948594H28.8374C29.1694 0.948594 29.4066 1.18574 29.4066 1.51775V14.8455H14.6085C13.8496 15.0352 13.0907 15.1775 12.3793 15.1775L12.1422 15.4147C11.7153 15.889 11.241 16.2684 10.7667 16.553C13.3753 16.6004 15.6994 17.881 17.1223 19.9205H28.8374C29.6911 19.9205 30.3552 19.209 30.3552 18.4027V1.51775C30.3552 0.664016 29.6437 0 28.8374 0ZM17.2171 18.2604C16.7428 18.2604 16.3634 17.881 16.3634 17.4067C16.3634 16.9324 16.7428 16.553 17.2171 16.553C17.6914 16.553 18.0709 16.9324 18.0709 17.4067C18.0709 17.881 17.6914 18.2604 17.2171 18.2604Z" fill="#FED91F"/>
<path d="M12.8059 12.6642C12.8533 12.5219 12.9007 12.427 12.9482 12.2847C14.2288 12.095 14.4659 9.34409 13.375 8.58521C12.9482 6.07144 11.0036 4.22168 8.77436 4.22168C6.49773 4.22168 4.60054 6.07144 4.17368 8.58521C3.08279 9.34409 3.31994 12.0476 4.60054 12.2847C5.35942 14.2768 6.9246 16.2214 8.77436 16.2214C9.81781 16.2214 10.6715 15.6522 11.4304 14.8459C10.719 14.7511 10.055 14.5614 9.53323 14.2293C9.29608 14.3242 9.05894 14.3716 8.82179 14.3716C7.7309 14.3716 6.78231 13.4705 6.78231 12.3322C6.78231 11.1938 7.68347 10.2927 8.82179 10.2927C9.9601 10.2927 10.8613 11.1938 10.8613 12.3322V12.4744C11.4304 12.7116 12.1893 12.759 12.8059 12.6642Z" fill="#FED91F"/>
<path d="M10.6717 17.502H6.97217C3.13036 17.502 0 20.6323 0 24.4741V27.7942C0 27.9839 0.142289 28.1736 0.284578 28.2211C5.73899 30.4977 11.478 30.6874 17.3118 28.2211C17.5016 28.1262 17.5964 27.9839 17.5964 27.7942V24.4741C17.5964 20.6323 14.5135 17.502 10.6717 17.502Z" fill="#FED91F"/>
<path d="M1.84909 13.4226H1.89652C2.6554 13.4226 3.27199 12.806 3.27199 12.0472V10.5768C3.27199 9.96025 2.89255 9.48595 2.37082 9.29623C2.75026 5.78643 5.45375 3.08294 8.77383 3.08294C12.0939 3.08294 14.8448 5.739 15.1768 9.2488C14.6551 9.43852 14.2757 9.96024 14.2757 10.5294V11.9997C14.2757 12.142 14.2757 12.2369 14.3231 12.3317C14.3705 12.5214 14.4654 12.7112 14.5603 12.8535C13.4219 13.2329 11.5248 13.6598 10.1493 12.7586C10.1967 12.6163 10.2442 12.474 10.2442 12.3317C10.2442 11.5729 9.62757 10.9088 8.82126 10.9088C8.06239 10.9088 7.39837 11.5729 7.39837 12.3317C7.39837 13.138 8.06239 13.7546 8.82126 13.7546C9.10584 13.7546 9.34299 13.6598 9.58014 13.5175C11.2876 14.7032 13.9437 14.2763 15.7934 13.3752C16.5523 13.3278 17.1215 12.7586 17.1215 11.9997V10.5294C17.1215 9.91282 16.6946 9.39109 16.1254 9.20137C15.746 5.16984 12.5682 2.08691 8.77383 2.08691C4.97945 2.08691 1.80166 5.16984 1.42223 9.20137C0.9005 9.39109 0.473633 9.91282 0.473633 10.5768V12.0472C0.473633 12.806 1.09022 13.4226 1.84909 13.4226Z" fill="#FED91F"/>
<path d="M27.1296 11.2409C27.1296 11.478 26.9399 11.7152 26.6553 11.7152H21.5329C21.2957 11.7152 21.0586 11.478 21.0586 11.2409C21.0586 11.0038 21.2957 10.7666 21.5329 10.7666H26.6553C26.9399 10.7666 27.1296 10.9563 27.1296 11.2409Z" fill="#FED91F"/>
<path d="M26.6554 4.83824H19.0192C18.7346 4.83824 18.5449 4.64852 18.5449 4.36395C18.5449 4.07937 18.7346 3.88965 19.0192 3.88965H26.7028C26.9874 3.88965 27.1771 4.07937 27.1771 4.36395C27.1297 4.60109 26.94 4.83824 26.6554 4.83824Z" fill="#FED91F"/>
<path d="M27.1293 7.77898C27.1293 8.06356 26.9395 8.25328 26.655 8.25328H20.7263C20.4417 8.25328 20.252 8.06356 20.252 7.77898C20.252 7.49441 20.4417 7.30469 20.7263 7.30469H26.655C26.9395 7.30469 27.1293 7.54184 27.1293 7.77898Z" fill="#FED91F"/>
</svg>
