<svg width="30" height="30" viewBox="0 0 30 30" fill="none" xmlns="http://www.w3.org/2000/svg">
<path d="M28.6722 0H18.5479V2.6595C19.0447 2.4418 19.5881 2.35135 20.1287 2.39632C20.6693 2.44129 21.1902 2.62027 21.6443 2.91709C22.0984 3.2139 22.4714 3.61919 22.7295 4.09633C22.9877 4.57347 23.1229 5.10742 23.1229 5.64991C23.1229 6.19241 22.9877 6.72635 22.7295 7.20349C22.4714 7.68063 22.0984 8.08592 21.6443 8.38274C21.1902 8.67955 20.6693 8.85853 20.1287 8.90351C19.5881 8.94848 19.0447 8.85803 18.5479 8.64032V11.2998H22.1825C22.286 11.2998 22.3874 11.33 22.474 11.3867C22.5607 11.4433 22.629 11.524 22.6705 11.6189C22.7121 11.7137 22.7251 11.8187 22.708 11.9208C22.6909 12.0229 22.6444 12.1178 22.5741 12.194C22.2859 12.5086 22.0954 12.9004 22.0259 13.3214C21.9564 13.7425 22.0109 14.1747 22.1828 14.5653C22.3547 14.9559 22.6365 15.2881 22.9939 15.5213C23.3513 15.7545 23.7689 15.8786 24.1956 15.8786C24.6224 15.8786 25.0399 15.7545 25.3973 15.5213C25.7547 15.2881 26.0366 14.9559 26.2085 14.5653C26.3804 14.1747 26.4349 13.7425 26.3654 13.3214C26.2959 12.9004 26.1054 12.5086 25.8171 12.194C25.7469 12.1178 25.7004 12.0228 25.6833 11.9207C25.6662 11.8185 25.6792 11.7135 25.7208 11.6186C25.7624 11.5238 25.8308 11.4431 25.9176 11.3865C26.0043 11.3298 26.1057 11.2997 26.2093 11.2998H29.8397V1.17229C29.8397 0.86221 29.7168 0.564757 29.498 0.345047C29.2792 0.125337 28.9823 0.00126852 28.6722 0Z" fill="#FED91F"/>
<path d="M21.2818 20.0174C21.2818 20.503 21.1735 20.9825 20.9648 21.4209C20.756 21.8594 20.4521 22.2457 20.0751 22.5518C19.6982 22.858 19.2577 23.0761 18.7858 23.1905C18.3138 23.3048 17.8223 23.3125 17.347 23.2128C16.8718 23.1132 16.4247 22.9088 16.0385 22.6145C15.6522 22.3202 15.3364 21.9435 15.1142 21.5117C14.8919 21.08 14.7688 20.6041 14.7537 20.1187C14.7387 19.6334 14.8321 19.1508 15.0271 18.7061H12.3665V22.3428C12.3666 22.4464 12.3365 22.5478 12.2799 22.6346C12.2233 22.7213 12.1426 22.7897 12.0477 22.8313C11.9528 22.8729 11.8479 22.886 11.7457 22.8689C11.6435 22.8518 11.5486 22.8052 11.4724 22.735C11.1577 22.4465 10.7659 22.2557 10.3447 22.1861C9.92344 22.1164 9.49105 22.1708 9.10023 22.3427C8.70942 22.5146 8.37707 22.7965 8.14372 23.154C7.91038 23.5116 7.78613 23.9293 7.78613 24.3562C7.78613 24.7832 7.91038 25.2009 8.14372 25.5584C8.37707 25.916 8.70942 26.1979 9.10023 26.3697C9.49105 26.5416 9.92344 26.5961 10.3447 26.5264C10.7659 26.4567 11.1577 26.266 11.4724 25.9775C11.5485 25.9072 11.6435 25.8607 11.7456 25.8436C11.8477 25.8265 11.9526 25.8395 12.0475 25.8811C12.1423 25.9226 12.223 25.9909 12.2797 26.0776C12.3364 26.1642 12.3665 26.2656 12.3665 26.3691V30H22.4909C22.8006 29.9999 23.0976 29.8769 23.3166 29.658C23.5357 29.4391 23.659 29.1422 23.6594 28.8325V18.7082H21.0074C21.1885 19.1209 21.2819 19.5667 21.2818 20.0174Z" fill="#FED91F"/>
<path d="M6.79076 25.0131C6.67091 24.4268 6.71445 23.8189 6.91663 23.2556C7.1188 22.6924 7.47185 22.1955 7.93722 21.8193C8.40259 21.4431 8.96238 21.2019 9.55548 21.1222C10.1486 21.0425 10.7522 21.1273 11.3004 21.3673V18.7057H7.66359C7.55995 18.7056 7.45858 18.6754 7.37189 18.6186C7.2852 18.5618 7.21694 18.481 7.17549 18.386C7.1339 18.2912 7.12083 18.1863 7.13786 18.0842C7.15489 17.9821 7.2013 17.8872 7.2714 17.811C7.64404 17.4072 7.85036 16.8775 7.84902 16.3281C7.85356 16.0364 7.80004 15.7468 7.69158 15.4761C7.58311 15.2053 7.42187 14.9588 7.21724 14.751C7.01261 14.5431 6.76868 14.3781 6.49964 14.2654C6.23061 14.1527 5.94185 14.0947 5.65018 14.0947C5.35851 14.0947 5.06975 14.1527 4.80071 14.2654C4.53168 14.3781 4.28775 14.5431 4.08312 14.751C3.87848 14.9588 3.71724 15.2053 3.60878 15.4761C3.50031 15.7468 3.44679 16.0364 3.45133 16.3281C3.44982 16.8774 3.65617 17.407 4.02895 17.8105C4.09934 17.8866 4.146 17.9816 4.16322 18.0838C4.18044 18.186 4.16747 18.291 4.1259 18.386C4.08433 18.4809 4.01596 18.5617 3.92918 18.6184C3.8424 18.6751 3.74096 18.7052 3.6373 18.7052H0V28.8295C0.000564622 29.14 0.124323 29.4377 0.344109 29.657C0.563895 29.8764 0.861749 29.9997 1.17229 29.9997H11.2966V27.3465C10.8508 27.5418 10.367 27.6349 9.88064 27.6191C9.39423 27.6034 8.91748 27.4792 8.48525 27.2555C8.05302 27.0319 7.67623 26.7145 7.38241 26.3265C7.08859 25.9385 6.88518 25.4898 6.78703 25.0131H6.79076Z" fill="#FED91F"/>
<path d="M11.3004 17.6401V14.0028C11.3004 13.8993 11.3305 13.7979 11.3872 13.7113C11.4439 13.6246 11.5246 13.5563 11.6194 13.5148C11.7143 13.4732 11.8192 13.4602 11.9213 13.4773C12.0234 13.4944 12.1184 13.5409 12.1945 13.6112C12.5092 13.8997 12.901 14.0904 13.3222 14.1601C13.7435 14.2298 14.1759 14.1753 14.5667 14.0034C14.9575 13.8316 15.2898 13.5497 15.5232 13.1921C15.7565 12.8346 15.8808 12.4169 15.8808 11.9899C15.8808 11.563 15.7565 11.1453 15.5232 10.7877C15.2898 10.4302 14.9575 10.1483 14.5667 9.97642C14.1759 9.80454 13.7435 9.7501 13.3222 9.81976C12.901 9.88942 12.5092 10.0802 12.1945 10.3687C12.1183 10.4389 12.0234 10.4855 11.9212 10.5026C11.819 10.5197 11.7141 10.5066 11.6192 10.465C11.5243 10.4234 11.4436 10.355 11.387 10.2683C11.3304 10.1815 11.3003 10.0801 11.3004 9.97652V6.34082H1.17229C0.861597 6.34152 0.563829 6.46526 0.344134 6.68495C0.124439 6.90465 0.000703728 7.20242 0 7.51311V17.6374H2.6595C2.44192 17.1406 2.35157 16.5973 2.39663 16.0567C2.44168 15.5162 2.62071 14.9953 2.91754 14.5413C3.21437 14.0873 3.61964 13.7144 4.09674 13.4563C4.57385 13.1982 5.10774 13.063 5.65018 13.063C6.19262 13.063 6.72651 13.1982 7.20361 13.4563C7.68071 13.7144 8.08599 14.0873 8.38282 14.5413C8.67965 14.9953 8.85868 15.5162 8.90373 16.0567C8.94878 16.5973 8.85843 17.1406 8.64085 17.6374L11.3004 17.6401Z" fill="#FED91F"/>
</svg>
