<svg width="32" height="32" viewBox="0 0 32 32" fill="none" xmlns="http://www.w3.org/2000/svg">
<path d="M13.8569 18.1426V24.5711C13.8569 26.2761 13.1796 27.9112 11.974 29.1168C10.7685 30.3224 9.13333 30.9997 7.42836 30.9997C5.7234 30.9997 4.08827 30.3224 2.88268 29.1168C1.67708 27.9112 0.999791 26.2761 0.999791 24.5711C0.999791 22.8662 1.67708 21.2311 2.88268 20.0255C4.08827 18.8199 5.7234 18.1426 7.42836 18.1426H13.8569Z" stroke="#FED91F" stroke-width="2" stroke-linecap="round" stroke-linejoin="round"/>
<path d="M13.8569 13.8574H7.42836C5.7234 13.8574 4.08827 13.1801 2.88268 11.9745C1.67709 10.7689 0.999791 9.13381 0.999791 7.42885C0.999791 5.72389 1.67709 4.08876 2.88268 2.88316C4.08827 1.67757 5.7234 1.00028 7.42836 1.00028C9.13333 1.00028 10.7685 1.67757 11.974 2.88316C13.1796 4.08876 13.8569 5.72389 13.8569 7.42885V13.8574Z" stroke="#FED91F" stroke-width="2" stroke-linecap="round" stroke-linejoin="round"/>
<path d="M18.1431 13.8574V7.42885C18.1431 5.72389 18.8204 4.08875 20.026 2.88316C21.2315 1.67757 22.8667 1.00028 24.5716 1.00028C26.2766 1.00028 27.9117 1.67757 29.1173 2.88316C30.3229 4.08875 31.0002 5.72389 31.0002 7.42885C31.0002 9.13381 30.3229 10.7689 29.1173 11.9745C27.9117 13.1801 26.2766 13.8574 24.5716 13.8574H18.1431Z" stroke="#FED91F" stroke-width="2" stroke-linecap="round" stroke-linejoin="round"/>
<path d="M18.1431 18.1426H24.5716C26.2766 18.1426 27.9117 18.8199 29.1173 20.0255C30.3229 21.2311 31.0002 22.8662 31.0002 24.5711C31.0002 26.2761 30.3229 27.9112 29.1173 29.1168C27.9117 30.3224 26.2766 30.9997 24.5716 30.9997C22.8667 30.9997 21.2315 30.3224 20.026 29.1168C18.8204 27.9112 18.1431 26.2761 18.1431 24.5711V18.1426Z" stroke="#FED91F" stroke-width="2" stroke-linecap="round" stroke-linejoin="round"/>
</svg>
