<svg width="120" height="112" viewBox="0 0 120 112" fill="none" xmlns="http://www.w3.org/2000/svg">
<path d="M84.2683 11.0068H51.2089C49.9147 11.0068 48.8652 12.0561 48.8652 13.3505C48.8652 14.6449 49.9147 15.6942 51.2089 15.6942H84.2683C85.5625 15.6942 86.612 14.6449 86.612 13.3505C86.612 12.0561 85.5625 11.0068 84.2683 11.0068Z" fill="#6D2CF8"/>
<path d="M24.0107 11.0059C23.3941 11.0059 22.7896 11.2566 22.3537 11.6926C21.9178 12.1285 21.667 12.7332 21.667 13.3496C21.667 13.9684 21.9175 14.5707 22.3537 15.0066C22.7896 15.4426 23.3941 15.6934 24.0107 15.6934C24.6271 15.6934 25.2318 15.4426 25.6675 15.0066C26.1035 14.5707 26.3545 13.966 26.3545 13.3496C26.3545 12.7332 26.1037 12.1285 25.6675 11.6926C25.2318 11.2566 24.6271 11.0059 24.0107 11.0059Z" fill="#FED91F"/>
<path d="M12.6318 11.0059C12.0154 11.0059 11.4107 11.2566 10.975 11.6926C10.5391 12.1285 10.2881 12.7332 10.2881 13.3496C10.2881 13.966 10.5389 14.5707 10.975 15.0066C11.4107 15.4426 12.0154 15.6934 12.6318 15.6934C13.2508 15.6934 13.8529 15.4426 14.2889 15.0066C14.7248 14.5707 14.9756 13.966 14.9756 13.3496C14.9756 12.7332 14.725 12.1285 14.2889 11.6926C13.8529 11.2566 13.2508 11.0059 12.6318 11.0059Z" fill="#FED91F"/>
<path d="M35.3896 11.0059C34.7732 11.0059 34.1686 11.2566 33.7326 11.6926C33.2967 12.1285 33.0459 12.7332 33.0459 13.3496C33.0459 13.966 33.2964 14.5707 33.7326 15.0066C34.1686 15.4426 34.7732 15.6934 35.3896 15.6934C36.0061 15.6934 36.6107 15.4426 37.0464 15.0066C37.4824 14.5707 37.7334 13.966 37.7334 13.3496C37.7334 12.7332 37.4826 12.1285 37.0464 11.6926C36.6107 11.2566 36.0061 11.0059 35.3896 11.0059Z" fill="#FED91F"/>
<path d="M117.439 96.2058L101.961 80.7286C103.886 76.9192 104.973 72.6172 104.973 68.0655C104.973 63.6915 103.97 59.5472 102.184 55.8498V3.03801C102.184 1.7436 101.135 0.694336 99.8404 0.694336H2.34367C1.0495 0.694336 0 1.7436 0 3.03801V88.3477C0 89.6419 1.0495 90.6913 2.34367 90.6913H17.0467C18.3409 90.6913 19.3904 89.6419 19.3904 88.3477C19.3904 87.0535 18.3409 86.004 17.0467 86.004H4.68734V26.006H97.4968V48.973C92.3456 43.3932 84.9743 39.8925 76.7993 39.8925C61.2648 39.8925 48.6263 52.5307 48.6263 68.0655C48.6263 74.8753 51.055 81.1282 55.0915 86.0042H38.14C36.8458 86.0042 35.7963 87.0537 35.7963 88.3479C35.7963 89.6421 36.8458 90.6916 38.14 90.6916H60.032C64.7203 94.175 70.5232 96.2388 76.7993 96.2388C81.3303 96.2388 85.6141 95.1621 89.4106 93.2535L104.901 108.744C106.609 110.452 108.855 111.305 111.107 111.305C113.38 111.305 115.658 110.436 117.394 108.7C120.851 105.243 120.871 99.6383 117.439 96.2058ZM4.68734 21.3187V5.38168H97.4968V21.3187H4.68734ZM53.3136 68.0655C53.3136 55.1156 63.8491 44.5798 76.7993 44.5798C89.7495 44.5798 100.285 55.1156 100.285 68.0655C100.285 81.0157 89.7495 91.5515 76.7993 91.5515C63.8491 91.5515 53.3136 81.0157 53.3136 68.0655ZM114.08 105.385C112.451 107.014 109.82 107.034 108.216 105.429L93.5156 90.7291C95.7664 89.0646 97.7616 87.0739 99.4303 84.8263L114.124 99.5202C115.729 101.125 115.709 103.756 114.08 105.385Z" fill="#6D2CF8"/>
<path d="M19.2185 74.2856H35.9692C40.3631 74.2856 43.9377 70.711 43.9377 66.3171C43.9377 61.9232 40.3631 58.3486 35.9692 58.3486H19.2185C14.8246 58.3486 11.25 61.9232 11.25 66.3171C11.25 70.711 14.8246 74.2856 19.2185 74.2856ZM19.2185 63.036H35.9692C37.7785 63.036 39.2503 64.5078 39.2503 66.3171C39.2503 68.1264 37.7785 69.5983 35.9692 69.5983H19.2185C17.4092 69.5983 15.9373 68.1264 15.9373 66.3171C15.9373 64.5078 17.4092 63.036 19.2185 63.036Z" fill="white"/>
<path d="M15.2294 51.8163H37.577C38.8712 51.8163 39.9207 50.767 39.9207 49.4726C39.9207 48.1782 38.8712 47.1289 37.577 47.1289H15.2294C13.9352 47.1289 12.8857 48.1782 12.8857 49.4726C12.8857 50.767 13.9352 51.8163 15.2294 51.8163Z" fill="white"/>
<path d="M15.2294 40.5663H38.1402C39.4344 40.5663 40.4839 39.517 40.4839 38.2226C40.4839 36.9282 39.4344 35.8789 38.1402 35.8789H15.2294C13.9352 35.8789 12.8857 36.9282 12.8857 38.2226C12.8857 39.517 13.9352 40.5663 15.2294 40.5663Z" fill="white"/>
<path d="M56.6388 40.5663C57.933 40.5663 58.9825 39.517 58.9825 38.2226C58.9825 36.9282 57.933 35.8789 56.6388 35.8789H49.4482C48.154 35.8789 47.1045 36.9282 47.1045 38.2226C47.1045 39.517 48.154 40.5663 49.4482 40.5663H56.6388Z" fill="white"/>
<path d="M93.7231 68.0652C93.7231 66.771 92.6736 65.7215 91.3794 65.7215H75.4607C74.4576 62.4678 71.423 60.0967 67.8445 60.0967C63.4505 60.0967 59.876 63.6712 59.876 68.0652C59.876 72.4591 63.4505 76.0337 67.8445 76.0337C71.423 76.0337 74.4576 73.6626 75.4607 70.4088H79.661V72.3299C79.661 73.6241 80.7105 74.6736 82.0047 74.6736C83.2989 74.6736 84.3484 73.6241 84.3484 72.3299V70.4088H89.0357V71.2315C89.0357 72.5256 90.0852 73.5751 91.3794 73.5751C92.6736 73.5751 93.7231 72.5256 93.7231 71.2315V68.0652ZM67.8445 71.3463C66.0351 71.3463 64.5633 69.8745 64.5633 68.0652C64.5633 66.2559 66.0351 64.784 67.8445 64.784C69.6538 64.784 71.1256 66.2559 71.1256 68.0652C71.1256 69.8745 69.6538 71.3463 67.8445 71.3463Z" fill="#FED91F"/>
<path d="M27.5918 86.0039C26.9754 86.0039 26.3733 86.2545 25.9371 86.6906C25.4988 87.1263 25.248 87.731 25.248 88.3477C25.248 88.9641 25.4988 89.5688 25.9371 90.0045C26.3707 90.4404 26.9754 90.6914 27.5918 90.6914C28.2108 90.6914 28.8155 90.4406 29.2512 90.0045C29.6871 89.5688 29.9381 88.9641 29.9381 88.3477C29.9381 87.731 29.6873 87.1263 29.2512 86.6906C28.8129 86.2545 28.2108 86.0039 27.5918 86.0039Z" fill="#6D2CF8"/>
</svg>
