<svg width="120" height="92" viewBox="0 0 120 92" fill="none" xmlns="http://www.w3.org/2000/svg">
<path d="M118.242 66.7224C119.213 66.7224 120 65.9353 120 64.9646V4.28418C120 2.0227 118.16 0.182617 115.898 0.182617H44.5099C43.5391 0.182617 42.7521 0.969648 42.7521 1.94043C42.7521 2.91121 43.5391 3.69824 44.5099 3.69824H115.898C116.221 3.69824 116.484 3.96121 116.484 4.28418V14.9546H3.51562V4.28418C3.51562 3.96121 3.77859 3.69824 4.10156 3.69824H36.4188C37.3896 3.69824 38.1766 2.91121 38.1766 1.94043C38.1766 0.969648 37.3896 0.182617 36.4188 0.182617H4.10156C1.84008 0.182617 0 2.0227 0 4.28418V87.7153C0 89.9768 1.84008 91.8169 4.10156 91.8169H115.898C118.16 91.8169 120 89.9768 120 87.7153V73.0559C120 72.0851 119.213 71.2981 118.242 71.2981C117.271 71.2981 116.484 72.0851 116.484 73.0559V87.7151C116.484 88.0381 116.221 88.3011 115.898 88.3011H4.10156C3.77859 88.3011 3.51562 88.0381 3.51562 87.7151V18.4702H116.484V64.9646C116.484 65.9353 117.271 66.7224 118.242 66.7224Z" fill="#6D2CF8"/>
<path d="M11.1172 7.56836C10.1464 7.56836 9.35938 8.35539 9.35938 9.32617C9.35938 10.297 10.1464 11.084 11.1172 11.084H11.1437C12.1145 11.084 12.9015 10.297 12.9015 9.32617C12.9015 8.35539 12.1145 7.56836 11.1437 7.56836H11.1172Z" fill="white"/>
<path d="M16.4238 7.56836C15.453 7.56836 14.666 8.35539 14.666 9.32617C14.666 10.297 15.453 11.084 16.4238 11.084H16.4503C17.4211 11.084 18.2081 10.297 18.2081 9.32617C18.2081 8.35539 17.4211 7.56836 16.4503 7.56836H16.4238Z" fill="white"/>
<path d="M21.7314 7.56836C20.7607 7.56836 19.9736 8.35539 19.9736 9.32617C19.9736 10.297 20.7607 11.084 21.7314 11.084H21.7579C22.7287 11.084 23.5157 10.297 23.5157 9.32617C23.5157 8.35539 22.7287 7.56836 21.7579 7.56836H21.7314Z" fill="white"/>
<path d="M108.883 11.084C109.854 11.084 110.641 10.297 110.641 9.32617C110.641 8.35539 109.854 7.56836 108.883 7.56836H105.612C104.642 7.56836 103.854 8.35539 103.854 9.32617C103.854 10.297 104.642 11.084 105.612 11.084H108.883Z" fill="white"/>
<path d="M99.1188 56.5821V52.5253C99.1188 49.7226 96.8386 47.4424 94.0359 47.4424H25.9647C23.1621 47.4424 20.8818 49.7226 20.8818 52.5253V56.5821C20.8818 59.3847 23.1621 61.6647 25.9647 61.6647H54.6996C55.6704 61.6647 56.4574 60.8777 56.4574 59.9069C56.4574 58.9361 55.6704 58.1491 54.6996 58.1491H25.9647C25.1006 58.1491 24.3975 57.446 24.3975 56.5821V52.5253C24.3975 51.6611 25.1006 50.958 25.9647 50.958H84.2582V58.1489H62.7907C61.8199 58.1489 61.0329 58.9359 61.0329 59.9067C61.0329 60.8775 61.8199 61.6645 62.7907 61.6645H94.0359C96.8388 61.6647 99.1188 59.3847 99.1188 56.5821ZM87.7739 50.9582H94.0361C94.9003 50.9582 95.6034 51.6614 95.6034 52.5255V56.5823C95.6034 57.4464 94.9003 58.1493 94.0361 58.1493H87.7739V50.9582Z" fill="white"/>
<path d="M52.6865 74.4761C55.4892 74.4761 57.7694 72.1959 57.7694 69.3932C57.7694 66.5905 55.4892 64.3105 52.6865 64.3105H39.4237C36.6211 64.3105 34.3408 66.5908 34.3408 69.3932C34.3408 72.1959 36.6211 74.4761 39.4237 74.4761H52.6865ZM37.8567 69.3932C37.8567 68.5291 38.5598 67.8262 39.4239 67.8262H52.6868C53.5509 67.8262 54.254 68.5293 54.254 69.3932C54.254 70.2573 53.5509 70.9605 52.6868 70.9605H39.4239C38.5596 70.9605 37.8567 70.2573 37.8567 69.3932Z" fill="#FED91F"/>
<path d="M67.3143 64.3105C64.5117 64.3105 62.2314 66.5908 62.2314 69.3932C62.2314 72.1959 64.5117 74.4761 67.3143 74.4761H80.5771C83.3798 74.4761 85.66 72.1959 85.66 69.3932C85.66 66.5905 83.3798 64.3105 80.5771 64.3105H67.3143ZM82.1442 69.3932C82.1442 70.2573 81.4411 70.9605 80.5769 70.9605H67.3141C66.45 70.9605 65.7468 70.2573 65.7468 69.3932C65.7468 68.5291 66.45 67.8262 67.3141 67.8262H80.5769C81.4413 67.8262 82.1442 68.5293 82.1442 69.3932Z" fill="#FED91F"/>
<path d="M43.9011 29.9543C44.4076 29.9543 44.9061 30.0296 45.383 30.1779C46.3098 30.466 47.2953 29.9487 47.5838 29.0215C47.8721 28.0946 47.3544 27.1093 46.4274 26.8207C45.612 26.5671 44.7622 26.4385 43.9011 26.4385C39.2159 26.4385 35.4043 30.2501 35.4043 34.9353C35.4043 39.6204 39.2159 43.4321 43.9011 43.4321C48.5862 43.4321 52.3981 39.6204 52.3981 34.9353C52.3981 33.9645 51.6111 33.1775 50.6403 33.1775H43.9011C42.9303 33.1775 42.1433 33.9645 42.1433 34.9353C42.1433 35.9061 42.9303 36.6931 43.9011 36.6931H48.5623C47.8503 38.5749 46.0295 39.9164 43.9011 39.9164C41.1545 39.9164 38.9199 37.6819 38.9199 34.9353C38.9199 32.1886 41.1545 29.9543 43.9011 29.9543Z" fill="#FED91F"/>
<path d="M52.8232 39.2006C52.8232 41.6639 54.8271 43.6678 57.2904 43.6678C59.7537 43.6678 61.7576 41.6639 61.7576 39.2006C61.7576 36.7373 59.7537 34.7334 57.2904 34.7334C54.8271 34.7334 52.8232 36.7373 52.8232 39.2006ZM58.242 39.2006C58.242 39.7254 57.8152 40.1521 57.2904 40.1521C56.7657 40.1521 56.3389 39.7254 56.3389 39.2006C56.3389 38.6758 56.7657 38.249 57.2904 38.249C57.8152 38.249 58.242 38.6758 58.242 39.2006Z" fill="#FED91F"/>
<path d="M62.4658 39.2006C62.4658 41.6639 64.4697 43.6678 66.933 43.6678C69.3963 43.6678 71.4002 41.6639 71.4002 39.2006C71.4002 36.7373 69.3963 34.7334 66.933 34.7334C64.4697 34.7334 62.4658 36.7373 62.4658 39.2006ZM67.8846 39.2006C67.8846 39.7254 67.4578 40.1521 66.933 40.1521C66.4082 40.1521 65.9814 39.7254 65.9814 39.2006C65.9814 38.6758 66.4082 38.249 66.933 38.249C67.4578 38.249 67.8846 38.6758 67.8846 39.2006Z" fill="#FED91F"/>
<path d="M76.5746 34.7334C74.1113 34.7334 72.1074 36.7373 72.1074 39.2006C72.1074 41.6639 74.1113 43.6678 76.5746 43.6678C79.0379 43.6678 81.0418 41.6639 81.0418 39.2006C81.0418 36.7373 79.0379 34.7334 76.5746 34.7334ZM76.5746 40.1521C76.0498 40.1521 75.623 39.7254 75.623 39.2006C75.623 38.6758 76.0498 38.249 76.5746 38.249C77.0994 38.249 77.5262 38.6758 77.5262 39.2006C77.5262 39.7254 77.0994 40.1521 76.5746 40.1521Z" fill="#FED91F"/>
<path d="M51.6748 30.0805C51.6748 31.0512 52.4618 31.8383 53.4326 31.8383H75.8864C75.8513 32.3293 76.0198 32.8323 76.3953 33.2077C76.7384 33.5508 77.1884 33.7226 77.6382 33.7226C78.0879 33.7226 78.5379 33.5511 78.8811 33.2077L80.7654 31.3234C81.0952 30.9938 81.2804 30.5466 81.2804 30.0805C81.2804 29.6143 81.0952 29.1671 80.7654 28.8376L78.8811 26.9534C78.1946 26.2667 77.0815 26.2669 76.3953 26.9534C76.0198 27.3289 75.8513 27.8316 75.8864 28.3226H53.4324C52.4618 28.3226 51.6748 29.1097 51.6748 30.0805Z" fill="white"/>
<path d="M10.9053 81.0391C9.93449 81.0391 9.14746 81.8261 9.14746 82.7969C9.14746 83.7677 9.93449 84.5547 10.9053 84.5547H15.0225C15.9933 84.5547 16.7804 83.7677 16.7804 82.7969C16.7804 81.8261 15.9933 81.0391 15.0225 81.0391H10.9053Z" fill="#FED91F"/>
<path d="M21.5459 81.0391C20.5751 81.0391 19.7881 81.8261 19.7881 82.7969C19.7881 83.7677 20.5751 84.5547 21.5459 84.5547H25.6632C26.6339 84.5547 27.421 83.7677 27.421 82.7969C27.421 81.8261 26.6339 81.0391 25.6632 81.0391H21.5459Z" fill="#FED91F"/>
<path d="M32.1865 81.0391C31.2157 81.0391 30.4287 81.8261 30.4287 82.7969C30.4287 83.7677 31.2157 84.5547 32.1865 84.5547H36.3038C37.2746 84.5547 38.0616 83.7677 38.0616 82.7969C38.0616 81.8261 37.2746 81.0391 36.3038 81.0391H32.1865Z" fill="#FED91F"/>
<path d="M104.978 81.0391C104.007 81.0391 103.22 81.8261 103.22 82.7969C103.22 83.7677 104.007 84.5547 104.978 84.5547H109.095C110.066 84.5547 110.853 83.7677 110.853 82.7969C110.853 81.8261 110.066 81.0391 109.095 81.0391H104.978Z" fill="#FED91F"/>
</svg>
