<svg width="120" height="118" viewBox="0 0 120 118" fill="none" xmlns="http://www.w3.org/2000/svg">
<path d="M35.5198 30.9498C40.1586 30.9498 43.9323 27.1759 43.9323 22.5374C43.9323 17.8989 40.1584 14.125 35.5198 14.125C30.8813 14.125 27.1074 17.8989 27.1074 22.5374C27.1074 27.1759 30.8813 30.9498 35.5198 30.9498ZM35.5198 17.8638C38.0968 17.8638 40.1935 19.9605 40.1935 22.5374C40.1935 25.1144 38.0968 27.2111 35.5198 27.2111C32.9429 27.2111 30.8462 25.1144 30.8462 22.5374C30.8462 19.9605 32.9429 17.8638 35.5198 17.8638Z" fill="#FED91F"/>
<path d="M40.1936 33.7539H30.8465C26.2078 33.7539 22.4341 37.5278 22.4341 42.1663V44.0357C22.4341 45.0681 23.271 45.9051 24.3035 45.9051C25.3359 45.9051 26.1728 45.0681 26.1728 44.0357V42.1663C26.1728 39.5894 28.2696 37.4927 30.8465 37.4927H40.1938C42.7708 37.4927 44.8675 39.5894 44.8675 42.1663V44.0357C44.8675 45.0681 45.7045 45.9051 46.7369 45.9051C47.7693 45.9051 48.6063 45.0681 48.6063 44.0357V42.1663C48.606 37.5276 44.8324 33.7539 40.1936 33.7539Z" fill="#FED91F"/>
<path d="M35.5199 2.9082C19.5424 2.9082 6.54346 15.9069 6.54346 31.8847C6.54346 47.8625 19.5424 60.8609 35.5199 60.8609C37.1498 60.8609 38.7478 60.7236 40.3049 60.4637L43.9122 64.0712C45.7366 65.8953 48.1331 66.8075 50.5295 66.8075C52.3279 66.8075 54.1263 66.2938 55.6828 65.2665L67.6399 77.2231C69.4052 78.9887 71.756 79.9677 74.2588 79.9796H74.3052C76.802 79.9796 79.1409 79.0149 80.8959 77.2602C84.5402 73.6156 84.5238 67.6691 80.8591 64.0044L68.9097 52.055C69.9304 50.5306 70.4786 48.7388 70.4786 46.8631C70.4786 44.3633 69.5052 42.0132 67.7378 40.246L64.1081 36.616C64.3621 35.0757 64.4964 33.4956 64.4964 31.8845C64.4964 15.9069 51.4977 2.9082 35.5199 2.9082ZM10.2824 31.8845C10.2824 17.9684 21.6039 6.64695 35.5199 6.64695C49.436 6.64695 60.7574 17.9684 60.7574 31.8845C60.7574 45.8005 49.436 57.122 35.5199 57.122C21.6039 57.122 10.2824 45.8005 10.2824 31.8845ZM78.2517 74.6162C77.1972 75.6711 75.794 76.2383 74.2766 76.2406C72.7656 76.2334 71.3477 75.6434 70.2834 74.5794L58.4608 62.7568L66.392 54.8256L78.2146 66.6481C80.4222 68.8555 80.4386 72.4297 78.2517 74.6162ZM65.0938 42.8898C66.1551 43.951 66.7396 45.3622 66.7396 46.8631C66.7396 48.3629 66.156 49.7729 65.096 50.8339C65.087 50.8424 65.0777 50.8498 65.0688 50.8585C65.0592 50.8681 65.0512 50.8787 65.0418 50.8883L54.5181 61.412C54.5102 61.4197 54.5015 61.4263 54.4935 61.434C54.491 61.4366 54.4888 61.4394 54.4863 61.442C52.2939 63.617 48.7413 63.6125 46.5555 61.4274L44.5474 59.4193C53.2912 56.5454 60.2099 49.6159 63.0695 40.8657L65.0938 42.8898Z" fill="#FED91F"/>
<path d="M1.86844 82.1262C1.89469 82.1262 1.92094 82.1257 1.94743 82.1246C17.231 81.4887 31.774 78.3406 45.1723 72.7671C46.1255 72.3708 46.5769 71.2763 46.1803 70.3231C45.7838 69.3701 44.6895 68.9178 43.7363 69.315C30.746 74.7185 16.6338 77.7713 1.7918 78.3886C0.760316 78.4317 -0.0412466 79.3027 0.00164405 80.3342C0.0438316 81.3396 0.871644 82.1262 1.86844 82.1262Z" fill="white"/>
<path d="M112.984 1.30104C112.724 0.811896 112.376 0.40338 111.864 0.217286C110.893 -0.135448 109.673 0.569318 108.749 0.923458C107.619 1.35635 106.488 1.78947 105.358 2.22236C102.586 3.28455 99.8132 4.34674 97.0408 5.40916C95.5265 5.98924 94.0122 6.56955 92.493 7.1515C91.5288 7.52111 91.0467 8.60205 91.4158 9.56627C91.7854 10.5305 92.8666 11.0119 93.8306 10.6432L108.106 5.17385C103.868 15.8703 93.4617 34.1827 75.1896 49.8748C74.4063 50.5474 74.3168 51.7278 74.9892 52.511C75.359 52.9416 75.8819 53.1626 76.4083 53.1626C76.8393 53.1626 77.2729 53.0142 77.6254 52.7114C86.9151 44.7335 95.0357 35.4645 101.762 25.1614C105.69 19.1445 109.019 12.8789 111.28 7.32119L116.385 20.6461C116.67 21.3903 117.379 21.8471 118.131 21.8471C118.354 21.8471 118.58 21.8072 118.8 21.7228C119.764 21.3532 120.246 20.2723 119.877 19.3081C119.361 17.9602 118.844 16.6125 118.328 15.2649C117.311 12.6101 116.294 9.9551 115.276 7.30033C114.784 6.01502 114.271 4.67908 113.767 3.37572C113.532 2.76963 113.337 1.96174 112.984 1.30104Z" fill="white"/>
<path d="M113.102 39.3623H98.1462C95.0538 39.3623 92.5378 41.8783 92.5378 44.9707V114.14H87.8642V79.5553C87.8642 78.5229 87.0272 77.6859 85.9948 77.6859C84.9624 77.6859 84.1254 78.5229 84.1254 79.5553V114.14H65.4309V80.49C65.4309 79.4575 64.594 78.6206 63.5616 78.6206C62.5292 78.6206 61.6922 79.4575 61.6922 80.49V114.14H57.0185V86.0983C57.0185 83.006 54.5028 80.49 51.4102 80.49H36.4547C33.3621 80.49 30.8463 83.006 30.8463 86.0983V114.14H26.1727V91.7067C26.1727 88.6143 23.6569 86.0983 20.5643 86.0983H5.60885C2.51627 86.0983 0.000488281 88.6143 0.000488281 91.7067V116.01C0.000488281 117.042 0.837441 117.879 1.86986 117.879H116.841C117.873 117.879 118.71 117.042 118.71 116.01V44.9704C118.71 41.8781 116.194 39.3623 113.102 39.3623ZM96.2766 44.9704C96.2766 43.9397 97.1154 43.1011 98.146 43.1011H113.101C114.132 43.1011 114.971 43.9399 114.971 44.9704V114.14H96.2766V44.9704ZM34.5849 86.0983C34.5849 85.0675 35.4235 84.229 36.4542 84.229H51.4097C52.4405 84.229 53.2791 85.0678 53.2791 86.0983V114.14H34.5846L34.5849 86.0983ZM5.60838 89.8373H20.5638C21.5946 89.8373 22.4332 90.6761 22.4332 91.7067V114.14H3.739V91.7067C3.739 90.6759 4.5776 89.8373 5.60838 89.8373Z" fill="#6D2CF8"/>
</svg>
