<svg width="30" height="15" viewBox="0 0 30 15" fill="none" xmlns="http://www.w3.org/2000/svg">
<circle cx="7.5" cy="7.5" r="7.5" fill="white"/>
<path d="M15 2C15 0.895431 15.9109 -0.0259812 16.9764 0.265093C17.2798 0.347975 17.5783 0.450034 17.8701 0.570904C18.7801 0.947814 19.6069 1.50026 20.3033 2.1967C20.9997 2.89314 21.5522 3.71993 21.9291 4.62988C22.306 5.53982 22.5 6.51509 22.5 7.5C22.5 8.48492 22.306 9.46019 21.9291 10.3701C21.5522 11.2801 20.9997 12.1069 20.3033 12.8033C19.6069 13.4997 18.7801 14.0522 17.8701 14.4291C17.5783 14.55 17.2798 14.652 16.9764 14.7349C15.9109 15.026 15 14.1046 15 13L15 2Z" fill="white"/>
<path d="M22.5 2C22.5 0.895431 23.4109 -0.0259812 24.4764 0.265093C24.7798 0.347975 25.0783 0.450034 25.3701 0.570904C26.2801 0.947814 27.1069 1.50026 27.8033 2.1967C28.4997 2.89314 29.0522 3.71993 29.4291 4.62988C29.806 5.53982 30 6.51509 30 7.5C30 8.48492 29.806 9.46019 29.4291 10.3701C29.0522 11.2801 28.4997 12.1069 27.8033 12.8033C27.1069 13.4997 26.2801 14.0522 25.3701 14.4291C25.0783 14.55 24.7798 14.652 24.4764 14.7349C23.4109 15.026 22.5 14.1046 22.5 13L22.5 2Z" fill="white"/>
</svg>
